<svg width="2090" height="733" xmlns="http://www.w3.org/2000/svg" xmlns:xlink="http://www.w3.org/1999/xlink" xml:space="preserve" overflow="hidden"><g transform="translate(-779 -472)"><g><path d="M1629.58 1052.5C1626.77 1052.5 1624.5 1050.23 1624.5 1047.42L1624.5 590.578C1624.5 587.773 1626.77 585.5 1629.58 585.5L1710.42 585.5C1713.23 585.5 1715.5 587.773 1715.5 590.578L1715.5 1047.42C1715.5 1050.23 1713.23 1052.5 1710.42 1052.5Z" stroke="#353A43" stroke-width="4.58333" stroke-linecap="square" stroke-linejoin="miter" stroke-miterlimit="8" stroke-dasharray="13.75 4.58333" stroke-opacity="1" fill="none" fill-rule="evenodd"/><text fill="#353A43" fill-opacity="1" font-family="Times New Roman,Times New Roman_MSFontService,sans-serif" font-style="normal" font-variant="normal" font-weight="700" font-stretch="normal" font-size="48" text-anchor="start" direction="ltr" writing-mode="lr-tb" unicode-bidi="normal" text-decoration="none" transform="matrix(-1.83697e-16 -1 1 -1.83697e-16 1686.63 891)">Report</text><path d="M892.5 1107.58C892.5 1104.77 894.773 1102.5 897.578 1102.5L1272.42 1102.5C1275.23 1102.5 1277.5 1104.77 1277.5 1107.58L1277.5 1188.42C1277.5 1191.23 1275.23 1193.5 1272.42 1193.5L897.578 1193.5C894.773 1193.5 892.5 1191.23 892.5 1188.42Z" stroke="#353A43" stroke-width="4.58333" stroke-linecap="square" stroke-linejoin="miter" stroke-miterlimit="8" stroke-dasharray="13.75 4.58333" stroke-opacity="0.301961" fill="none" fill-rule="evenodd"/><text fill="#353A43" fill-opacity="0.301961" font-family="Times New Roman,Times New Roman_MSFontService,sans-serif" font-style="normal" font-variant="normal" font-weight="700" font-stretch="normal" font-size="48" text-anchor="start" direction="ltr" writing-mode="lr-tb" unicode-bidi="normal" text-decoration="none" transform="matrix(1 0 0 1 934.162 1165)">Image Feature</text><rect x="892.5" y="585.5" width="153" height="467" stroke="#353A43" stroke-width="4.58333" stroke-linecap="butt" stroke-linejoin="miter" stroke-miterlimit="8" stroke-opacity="0.301961" fill="none"/><rect x="920" y="614" width="97.0003" height="64.9999" stroke="#353A43" stroke-width="2.29167" stroke-linecap="butt" stroke-linejoin="miter" stroke-miterlimit="8" stroke-opacity="0.301961" fill="#E9EFEF" fill-opacity="1"/><rect x="920" y="729" width="97.0003" height="64.9999" stroke="#353A43" stroke-width="2.29167" stroke-linecap="butt" stroke-linejoin="miter" stroke-miterlimit="8" stroke-opacity="0.301961" fill="#E9EFEF" fill-opacity="1"/><rect x="920" y="844" width="97.0003" height="64.9999" stroke="#353A43" stroke-width="2.29167" stroke-linecap="butt" stroke-linejoin="miter" stroke-miterlimit="8" stroke-opacity="0.301961" fill="#E9EFEF" fill-opacity="1"/><rect x="920" y="959" width="97.0003" height="64.9999" stroke="#353A43" stroke-width="2.29167" stroke-linecap="butt" stroke-linejoin="miter" stroke-miterlimit="8" stroke-opacity="0.301961" fill="#E9EFEF" fill-opacity="1"/><path d="M971.792 679.5 971.792 716.299 967.208 716.299 967.208 679.5ZM978.667 711.716 969.5 730.049 960.333 711.716Z" fill="#353A43" fill-rule="nonzero" fill-opacity="0.301961"/><path d="M971.792 794.5 971.792 831.299 967.208 831.299 967.208 794.5ZM978.667 826.716 969.5 845.049 960.333 826.716Z" fill="#353A43" fill-rule="nonzero" fill-opacity="0.301961"/><path d="M971.792 909.5 971.792 946.299 967.208 946.299 967.208 909.5ZM978.667 941.715 969.5 960.049 960.333 941.716Z" fill="#353A43" fill-rule="nonzero" fill-opacity="0.301961"/><rect x="1122.5" y="585.5" width="153" height="467" stroke="#353A43" stroke-width="4.58333" stroke-linecap="butt" stroke-linejoin="miter" stroke-miterlimit="8" stroke-opacity="0.301961" fill="none"/><rect x="1150" y="614" width="97.0002" height="64.9999" stroke="#353A43" stroke-width="2.29167" stroke-linecap="butt" stroke-linejoin="miter" stroke-miterlimit="8" stroke-opacity="0.301961" fill="#E9EFEF" fill-opacity="1"/><rect x="1150" y="729" width="97.0002" height="64.9999" stroke="#353A43" stroke-width="2.29167" stroke-linecap="butt" stroke-linejoin="miter" stroke-miterlimit="8" stroke-opacity="0.301961" fill="#E9EFEF" fill-opacity="1"/><rect x="1150" y="844" width="97.0002" height="64.9999" stroke="#353A43" stroke-width="2.29167" stroke-linecap="butt" stroke-linejoin="miter" stroke-miterlimit="8" stroke-opacity="0.301961" fill="#E9EFEF" fill-opacity="1"/><rect x="1150" y="959" width="97.0002" height="64.9999" stroke="#353A43" stroke-width="2.29167" stroke-linecap="butt" stroke-linejoin="miter" stroke-miterlimit="8" stroke-opacity="0.301961" fill="#E9EFEF" fill-opacity="1"/><path d="M2.29167-1.63612e-05 2.29193 36.7991-2.2914 36.7991-2.29167 1.63612e-05ZM9.1669 32.2157 0.000360892 50.5491-9.16644 32.2158Z" fill="#353A43" fill-rule="nonzero" fill-opacity="0.301961" transform="matrix(1 0 0 -1 1199.5 730.049)"/><path d="M2.29167-1.63612e-05 2.29193 36.7991-2.2914 36.7991-2.29167 1.63612e-05ZM9.1669 32.2157 0.000360892 50.5491-9.16644 32.2158Z" fill="#353A43" fill-rule="nonzero" fill-opacity="0.301961" transform="matrix(1 0 0 -1 1199.5 845.049)"/><path d="M2.29167-1.63613e-05 2.29193 36.7987-2.2914 36.7988-2.29167 1.63613e-05ZM9.1669 32.2154 0.000360892 50.5488-9.16644 32.2155Z" fill="#353A43" fill-rule="nonzero" fill-opacity="0.301961" transform="matrix(1 0 0 -1 1199.5 960.049)"/><path d="M971.792 1024.5 971.792 1089.47 967.208 1089.47 967.208 1024.5ZM978.667 1084.89 969.5 1103.22 960.333 1084.89Z" fill="#353A43" fill-rule="nonzero" fill-opacity="0.301961"/><path d="M2.29167-1.05056e-05 2.29196 64.9743-2.29137 64.9744-2.29167 1.05056e-05ZM9.16694 60.391 0.000360892 78.7243-9.16639 60.3911Z" fill="#353A43" fill-rule="nonzero" fill-opacity="0.301961" transform="matrix(1 0 0 -1 1199.5 1103.22)"/><path d="M1017.5 644.208 1137.34 644.209 1137.34 648.792 1017.5 648.792ZM1132.76 637.334 1151.09 646.5 1132.76 655.667Z" fill="#353A43" fill-rule="nonzero" fill-opacity="0.301961"/><path d="M1017.5 759.208 1137.34 759.209 1137.34 763.792 1017.5 763.792ZM1132.76 752.333 1151.09 761.5 1132.76 770.667Z" fill="#353A43" fill-rule="nonzero" fill-opacity="0.301961"/><path d="M1017.5 874.208 1137.34 874.209 1137.34 878.792 1017.5 878.792ZM1132.76 867.334 1151.09 876.5 1132.76 885.667Z" fill="#353A43" fill-rule="nonzero" fill-opacity="0.301961"/><path d="M1017.5 989.208 1137.34 989.209 1137.34 993.792 1017.5 993.792ZM1132.76 982.333 1151.09 991.5 1132.76 1000.67Z" fill="#353A43" fill-rule="nonzero" fill-opacity="0.301961"/><path d="M1336.58 1052.5C1333.77 1052.5 1331.5 1050.23 1331.5 1047.42L1331.5 590.578C1331.5 587.773 1333.77 585.5 1336.58 585.5L1417.42 585.5C1420.23 585.5 1422.5 587.773 1422.5 590.578L1422.5 1047.42C1422.5 1050.23 1420.23 1052.5 1417.42 1052.5Z" stroke="#353A43" stroke-width="4.58333" stroke-linecap="square" stroke-linejoin="miter" stroke-miterlimit="8" stroke-dasharray="13.75 4.58333" stroke-opacity="0.301961" fill="none" fill-rule="evenodd"/><text fill="#353A43" fill-opacity="0.301961" font-family="Times New Roman,Times New Roman_MSFontService,sans-serif" font-style="normal" font-variant="normal" font-weight="700" font-stretch="normal" font-size="48" text-anchor="start" direction="ltr" writing-mode="lr-tb" unicode-bidi="normal" text-decoration="none" transform="matrix(-1.83697e-16 -1 1 -1.83697e-16 1393.67 951)">Text Feature</text><path d="M9.81614e-06-2.29167 70.5036-2.29136 70.5036 2.29197-9.81614e-06 2.29167ZM65.9203-9.16638 84.2536 0.000360892 65.9202 9.16695Z" fill="#353A43" fill-rule="nonzero" fill-opacity="0.301961" transform="matrix(-1 0 0 1 1331.75 991.5)"/><path d="M9.81614e-06-2.29167 70.5036-2.29136 70.5036 2.29197-9.81614e-06 2.29167ZM65.9203-9.16638 84.2536 0.000360892 65.9202 9.16695Z" fill="#353A43" fill-rule="nonzero" fill-opacity="0.301961" transform="matrix(-1 0 0 1 1331.75 876.5)"/><path d="M9.81614e-06-2.29167 70.5036-2.29136 70.5036 2.29197-9.81614e-06 2.29167ZM65.9203-9.16638 84.2536 0.000360892 65.9202 9.16695Z" fill="#353A43" fill-rule="nonzero" fill-opacity="0.301961" transform="matrix(-1 0 0 1 1331.75 761.5)"/><path d="M9.81614e-06-2.29167 70.5036-2.29136 70.5036 2.29197-9.81614e-06 2.29167ZM65.9203-9.16638 84.2536 0.000360892 65.9202 9.16695Z" fill="#353A43" fill-rule="nonzero" fill-opacity="0.301961" transform="matrix(-1 0 0 1 1331.75 646.5)"/><text fill="#353A43" fill-opacity="0.301961" font-family="Times New Roman,Times New Roman_MSFontService,sans-serif" font-style="normal" font-variant="normal" font-weight="700" font-stretch="normal" font-size="48" text-anchor="start" direction="ltr" writing-mode="lr-tb" unicode-bidi="normal" text-decoration="none" transform="matrix(1 0 0 1 903.87 536)">Image</text><text fill="#353A43" fill-opacity="0.301961" font-family="Times New Roman,Times New Roman_MSFontService,sans-serif" font-style="normal" font-variant="normal" font-weight="700" font-stretch="normal" font-size="48" text-anchor="start" direction="ltr" writing-mode="lr-tb" unicode-bidi="normal" text-decoration="none" transform="matrix(1 0 0 1 1140.49 536)">Mask</text><path d="M1197.21 614.767 1197.21 569.25 1201.79 569.25 1201.79 614.767ZM1190.33 573.833 1199.5 555.5 1208.67 573.833Z" fill="#353A43" fill-rule="nonzero" fill-opacity="0.301961"/><path d="M971.792 555.5 971.792 601.017 967.208 601.017 967.208 555.5ZM978.667 596.433 969.5 614.767 960.333 596.434Z" fill="#353A43" fill-rule="nonzero" fill-opacity="0.301961"/><rect x="1771.5" y="585.5" width="155" height="468" stroke="#353A43" stroke-width="4.58333" stroke-linecap="butt" stroke-linejoin="miter" stroke-miterlimit="8" stroke-opacity="1" fill="#F5DDDB" fill-opacity="1"/><text fill="#353A43" fill-opacity="1" font-family="Times New Roman,Times New Roman_MSFontService,sans-serif" font-style="normal" font-variant="normal" font-weight="700" font-stretch="normal" font-size="48" text-anchor="start" direction="ltr" writing-mode="lr-tb" unicode-bidi="normal" text-decoration="none" transform="matrix(-1.83697e-16 -1 1 -1.83697e-16 1865.59 874)">LLM</text><rect x="1478.5" y="585.5" width="91.0001" height="467" stroke="#353A43" stroke-width="4.58333" stroke-linecap="butt" stroke-linejoin="miter" stroke-miterlimit="8" stroke-opacity="1" fill="none"/><text fill="#353A43" fill-opacity="1" font-family="Times New Roman,Times New Roman_MSFontService,sans-serif" font-style="normal" font-variant="normal" font-weight="700" font-stretch="normal" font-size="48" text-anchor="start" direction="ltr" writing-mode="lr-tb" unicode-bidi="normal" text-decoration="none" transform="matrix(-1.83697e-16 -1 1 -1.83697e-16 1540.15 958)">Text Encoder</text><path d="M1625.03 822.075 1583.24 821.862 1583.26 817.279 1625.05 817.492ZM1587.79 828.76 1569.5 819.5 1587.88 810.427Z" fill="#353A43" fill-rule="nonzero" fill-opacity="1"/><path d="M0.0117046-2.29164 41.7996-2.0782 41.7762 2.50507-0.0117046 2.29164ZM37.2515-8.97652 55.5377 0.283661 37.1578 9.35657Z" fill="#353A43" fill-rule="nonzero" fill-opacity="1" transform="matrix(-1 0 0 1 1478.04 819.5)"/><path d="M0-2.29167 574.244-2.29167 574.244 81.1088 569.661 81.1088 569.661 0 571.953 2.29167 0 2.29167ZM581.119 76.5254 571.953 94.8588 562.786 76.5254Z" fill="#353A43" fill-rule="nonzero" fill-opacity="1" transform="matrix(1 0 0 -1 1277.5 1148.36)"/><path d="M1771.03 822.075 1729.24 821.862 1729.26 817.279 1771.05 817.492ZM1733.79 828.76 1715.5 819.5 1733.88 810.427Z" fill="#353A43" fill-rule="nonzero" fill-opacity="1"/><text fill="#334445" fill-opacity="1" font-family="Times New Roman,Times New Roman_MSFontService,sans-serif" font-style="normal" font-variant="normal" font-weight="700" font-stretch="normal" font-size="48" text-anchor="start" direction="ltr" writing-mode="lr-tb" unicode-bidi="normal" text-decoration="none" transform="matrix(1 0 0 1 809.858 536)">a)</text><rect x="2602" y="585" width="90" height="28.9999" fill="#FFFFFF" fill-opacity="1"/><path d="M2162.5 1107.58C2162.5 1104.77 2164.77 1102.5 2167.58 1102.5L2542.42 1102.5C2545.23 1102.5 2547.5 1104.77 2547.5 1107.58L2547.5 1188.42C2547.5 1191.23 2545.23 1193.5 2542.42 1193.5L2167.58 1193.5C2164.77 1193.5 2162.5 1191.23 2162.5 1188.42Z" stroke="#353A43" stroke-width="4.58333" stroke-linecap="square" stroke-linejoin="miter" stroke-miterlimit="8" stroke-dasharray="13.75 4.58333" stroke-opacity="0.301961" fill="none" fill-rule="evenodd"/><text fill="#353A43" fill-opacity="0.301961" font-family="Times New Roman,Times New Roman_MSFontService,sans-serif" font-style="normal" font-variant="normal" font-weight="700" font-stretch="normal" font-size="48" text-anchor="start" direction="ltr" writing-mode="lr-tb" unicode-bidi="normal" text-decoration="none" transform="matrix(1 0 0 1 2204.62 1165)">Image Feature</text><rect x="2162.5" y="585.5" width="154" height="467" stroke="#353A43" stroke-width="4.58333" stroke-linecap="butt" stroke-linejoin="miter" stroke-miterlimit="8" stroke-opacity="0.301961" fill="none"/><rect x="2191" y="614" width="96" height="64.9999" stroke="#353A43" stroke-width="2.29167" stroke-linecap="butt" stroke-linejoin="miter" stroke-miterlimit="8" stroke-opacity="0.301961" fill="#E9EFEF" fill-opacity="1"/><rect x="2191" y="729" width="96" height="64.9999" stroke="#353A43" stroke-width="2.29167" stroke-linecap="butt" stroke-linejoin="miter" stroke-miterlimit="8" stroke-opacity="0.301961" fill="#E9EFEF" fill-opacity="1"/><rect x="2191" y="844" width="96" height="64.9999" stroke="#353A43" stroke-width="2.29167" stroke-linecap="butt" stroke-linejoin="miter" stroke-miterlimit="8" stroke-opacity="0.301961" fill="#E9EFEF" fill-opacity="1"/><rect x="2191" y="959" width="96" height="64.9999" stroke="#353A43" stroke-width="2.29167" stroke-linecap="butt" stroke-linejoin="miter" stroke-miterlimit="8" stroke-opacity="0.301961" fill="#E9EFEF" fill-opacity="1"/><path d="M2241.79 679.5 2241.79 716.299 2237.21 716.299 2237.21 679.5ZM2248.67 711.716 2239.5 730.049 2230.33 711.716Z" fill="#353A43" fill-rule="nonzero" fill-opacity="0.301961"/><path d="M2241.79 794.5 2241.79 831.299 2237.21 831.299 2237.21 794.5ZM2248.67 826.716 2239.5 845.049 2230.33 826.716Z" fill="#353A43" fill-rule="nonzero" fill-opacity="0.301961"/><path d="M2241.79 909.5 2241.79 946.299 2237.21 946.299 2237.21 909.5ZM2248.67 941.715 2239.5 960.049 2230.33 941.716Z" fill="#353A43" fill-rule="nonzero" fill-opacity="0.301961"/><rect x="2392.5" y="585.5" width="154" height="467" stroke="#353A43" stroke-width="4.58333" stroke-linecap="butt" stroke-linejoin="miter" stroke-miterlimit="8" stroke-opacity="0.301961" fill="none"/><rect x="2421" y="614" width="96" height="64.9999" stroke="#353A43" stroke-width="2.29167" stroke-linecap="butt" stroke-linejoin="miter" stroke-miterlimit="8" stroke-opacity="0.301961" fill="#E9EFEF" fill-opacity="1"/><rect x="2421" y="729" width="96" height="64.9999" stroke="#353A43" stroke-width="2.29167" stroke-linecap="butt" stroke-linejoin="miter" stroke-miterlimit="8" stroke-opacity="0.301961" fill="#E9EFEF" fill-opacity="1"/><rect x="2421" y="844" width="96" height="64.9999" stroke="#353A43" stroke-width="2.29167" stroke-linecap="butt" stroke-linejoin="miter" stroke-miterlimit="8" stroke-opacity="0.301961" fill="#E9EFEF" fill-opacity="1"/><rect x="2421" y="959" width="96" height="64.9999" stroke="#353A43" stroke-width="2.29167" stroke-linecap="butt" stroke-linejoin="miter" stroke-miterlimit="8" stroke-opacity="0.301961" fill="#E9EFEF" fill-opacity="1"/><path d="M2.29167-1.63612e-05 2.29193 36.7991-2.2914 36.7991-2.29167 1.63612e-05ZM9.1669 32.2157 0.000360892 50.5491-9.16644 32.2158Z" fill="#353A43" fill-rule="nonzero" fill-opacity="0.301961" transform="matrix(1 0 0 -1 2469.5 730.049)"/><path d="M2.29167-1.63612e-05 2.29193 36.7991-2.2914 36.7991-2.29167 1.63612e-05ZM9.1669 32.2157 0.000360892 50.5491-9.16644 32.2158Z" fill="#353A43" fill-rule="nonzero" fill-opacity="0.301961" transform="matrix(1 0 0 -1 2469.5 845.049)"/><path d="M2.29167-1.63613e-05 2.29193 36.7987-2.2914 36.7988-2.29167 1.63613e-05ZM9.1669 32.2154 0.000360892 50.5488-9.16644 32.2155Z" fill="#353A43" fill-rule="nonzero" fill-opacity="0.301961" transform="matrix(1 0 0 -1 2469.5 960.049)"/><path d="M2241.79 1024.5 2241.79 1089.47 2237.21 1089.47 2237.21 1024.5ZM2248.67 1084.89 2239.5 1103.22 2230.33 1084.89Z" fill="#353A43" fill-rule="nonzero" fill-opacity="0.301961"/><path d="M2.29167-1.05056e-05 2.29196 64.9743-2.29137 64.9744-2.29167 1.05056e-05ZM9.16694 60.391 0.000360892 78.7243-9.16639 60.3911Z" fill="#353A43" fill-rule="nonzero" fill-opacity="0.301961" transform="matrix(1 0 0 -1 2469.5 1103.22)"/><path d="M2287.5 644.208 2407.34 644.209 2407.34 648.792 2287.5 648.792ZM2402.76 637.334 2421.09 646.5 2402.76 655.667Z" fill="#353A43" fill-rule="nonzero" fill-opacity="0.301961"/><path d="M2287.5 759.208 2407.34 759.209 2407.34 763.792 2287.5 763.792ZM2402.76 752.333 2421.09 761.5 2402.76 770.667Z" fill="#353A43" fill-rule="nonzero" fill-opacity="0.301961"/><path d="M2287.5 874.208 2407.34 874.209 2407.34 878.792 2287.5 878.792ZM2402.76 867.334 2421.09 876.5 2402.76 885.667Z" fill="#353A43" fill-rule="nonzero" fill-opacity="0.301961"/><path d="M2287.5 989.208 2407.34 989.209 2407.34 993.792 2287.5 993.792ZM2402.76 982.333 2421.09 991.5 2402.76 1000.67Z" fill="#353A43" fill-rule="nonzero" fill-opacity="0.301961"/><path d="M0-2.29167 249.418-2.29167 249.418 81.6764 244.834 81.6764 244.834 0 247.126 2.29167 0 2.29167ZM256.293 77.0931 247.126 95.4264 237.959 77.0931Z" fill="#353A43" fill-rule="nonzero" fill-opacity="1" transform="matrix(1 0 0 -1 2547.5 1147.93)"/><path d="M2607.52 1052.5C2604.75 1052.5 2602.5 1050.25 2602.5 1047.48L2602.5 590.522C2602.5 587.748 2604.75 585.5 2607.52 585.5L2687.48 585.5C2690.25 585.5 2692.5 587.748 2692.5 590.522L2692.5 1047.48C2692.5 1050.25 2690.25 1052.5 2687.48 1052.5Z" stroke="#353A43" stroke-width="4.58333" stroke-linecap="square" stroke-linejoin="miter" stroke-miterlimit="8" stroke-dasharray="13.75 4.58333" stroke-opacity="0.301961" fill="none" fill-rule="evenodd"/><text fill="#353A43" fill-opacity="0.301961" font-family="Times New Roman,Times New Roman_MSFontService,sans-serif" font-style="normal" font-variant="normal" font-weight="700" font-stretch="normal" font-size="48" text-anchor="start" direction="ltr" writing-mode="lr-tb" unicode-bidi="normal" text-decoration="none" transform="matrix(-1.83697e-16 -1 1 -1.83697e-16 2664.12 951)">Text Feature</text><path d="M9.81614e-06-2.29167 70.5036-2.29136 70.5036 2.29197-9.81614e-06 2.29167ZM65.9203-9.16638 84.2536 0.000360892 65.9202 9.16695Z" fill="#353A43" fill-rule="nonzero" fill-opacity="0.301961" transform="matrix(-1 0 0 1 2601.75 991.5)"/><path d="M9.81614e-06-2.29167 70.5036-2.29136 70.5036 2.29197-9.81614e-06 2.29167ZM65.9203-9.16638 84.2536 0.000360892 65.9202 9.16695Z" fill="#353A43" fill-rule="nonzero" fill-opacity="0.301961" transform="matrix(-1 0 0 1 2601.75 876.5)"/><path d="M9.81614e-06-2.29167 70.5036-2.29136 70.5036 2.29197-9.81614e-06 2.29167ZM65.9203-9.16638 84.2536 0.000360892 65.9202 9.16695Z" fill="#353A43" fill-rule="nonzero" fill-opacity="0.301961" transform="matrix(-1 0 0 1 2601.75 761.5)"/><path d="M9.81614e-06-2.29167 70.5036-2.29136 70.5036 2.29197-9.81614e-06 2.29167ZM65.9203-9.16638 84.2536 0.000360892 65.9202 9.16695Z" fill="#353A43" fill-rule="nonzero" fill-opacity="0.301961" transform="matrix(-1 0 0 1 2601.75 646.5)"/><text fill="#353A43" fill-opacity="0.301961" font-family="Times New Roman,Times New Roman_MSFontService,sans-serif" font-style="normal" font-variant="normal" font-weight="700" font-stretch="normal" font-size="48" text-anchor="start" direction="ltr" writing-mode="lr-tb" unicode-bidi="normal" text-decoration="none" transform="matrix(1 0 0 1 2174.33 536)">Image</text><text fill="#353A43" fill-opacity="0.301961" font-family="Times New Roman,Times New Roman_MSFontService,sans-serif" font-style="normal" font-variant="normal" font-weight="700" font-stretch="normal" font-size="48" text-anchor="start" direction="ltr" writing-mode="lr-tb" unicode-bidi="normal" text-decoration="none" transform="matrix(1 0 0 1 2410.95 536)">Mask</text><path d="M2467.21 614.767 2467.21 569.25 2471.79 569.25 2471.79 614.767ZM2460.33 573.833 2469.5 555.5 2478.67 573.833Z" fill="#353A43" fill-rule="nonzero" fill-opacity="0.301961"/><path d="M2241.79 555.5 2241.79 601.017 2237.21 601.017 2237.21 555.5ZM2248.67 596.433 2239.5 614.767 2230.33 596.434Z" fill="#353A43" fill-rule="nonzero" fill-opacity="0.301961"/><rect x="2749.5" y="679.5" width="90.9998" height="373" stroke="#353A43" stroke-width="4.58333" stroke-linecap="butt" stroke-linejoin="miter" stroke-miterlimit="8" stroke-opacity="1" fill="#DBE6D9" fill-opacity="1"/><text fill="#353A43" fill-opacity="1" font-family="Times New Roman,Times New Roman_MSFontService,sans-serif" font-style="normal" font-variant="normal" font-weight="700" font-stretch="normal" font-size="48" text-anchor="start" direction="ltr" writing-mode="lr-tb" unicode-bidi="normal" text-decoration="none" transform="matrix(-1.83697e-16 -1 1 -1.83697e-16 2811.23 911)">PSA</text><path d="M0-2.29167 81.1669-2.29167 81.1669 87.8791 76.5835 87.8791 76.5835 0 78.8752 2.29167 0 2.29167ZM88.0419 83.2958 78.8752 101.629 69.7085 83.2958Z" fill="#353A43" fill-rule="nonzero" fill-opacity="1" transform="matrix(-1.83697e-16 -1 -1 1.83697e-16 2794.13 679.375)"/><path d="M2724 635C2724 623.402 2733.4 614 2745 614L2843 614C2854.6 614 2864 623.402 2864 635L2864 635C2864 646.598 2854.6 656 2843 656L2745 656C2733.4 656 2724 646.598 2724 635Z" fill="#FFFFFF" fill-rule="evenodd" fill-opacity="1"/><text fill="#353A43" fill-opacity="1" font-family="Times New Roman,Times New Roman_MSFontService,sans-serif" font-style="normal" font-variant="normal" font-weight="700" font-stretch="normal" font-size="32" text-anchor="start" direction="ltr" writing-mode="lr-tb" unicode-bidi="normal" text-decoration="none" transform="matrix(1 0 0 1 2738.82 645)">respond</text><path d="M2736 1106C2736 1094.4 2745.4 1085 2757 1085L2831 1085C2842.6 1085 2852 1094.4 2852 1106L2852 1106C2852 1117.6 2842.6 1127 2831 1127L2757 1127C2745.4 1127 2736 1117.6 2736 1106Z" fill="#FFFFFF" fill-rule="evenodd" fill-opacity="1"/><text fill="#353A43" fill-opacity="1" font-family="Times New Roman,Times New Roman_MSFontService,sans-serif" font-style="normal" font-variant="normal" font-weight="700" font-stretch="normal" font-size="32" text-anchor="start" direction="ltr" writing-mode="lr-tb" unicode-bidi="normal" text-decoration="none" transform="matrix(1 0 0 1 2754 1114)">query</text><text fill="#334445" fill-opacity="1" font-family="Times New Roman,Times New Roman_MSFontService,sans-serif" font-style="normal" font-variant="normal" font-weight="700" font-stretch="normal" font-size="48" text-anchor="start" direction="ltr" writing-mode="lr-tb" unicode-bidi="normal" text-decoration="none" transform="matrix(1 0 0 1 2080.31 536)">b)</text></g></g></svg>