<svg width="3511" height="1132" xmlns="http://www.w3.org/2000/svg" xmlns:xlink="http://www.w3.org/1999/xlink" xml:space="preserve" overflow="hidden"><g transform="translate(-2809 -1402)"><g><path d="M2861 1952.33C2861 1928.4 2880.4 1909 2904.33 1909L3206.67 1909C3230.6 1909 3250 1928.4 3250 1952.33L3250 2125.67C3250 2149.6 3230.6 2169 3206.67 2169L2904.33 2169C2880.4 2169 2861 2149.6 2861 2125.67Z" stroke="#000000" stroke-width="8.02083" stroke-linecap="butt" stroke-linejoin="miter" stroke-miterlimit="8" stroke-opacity="1" fill="#FFECA9" fill-rule="evenodd" fill-opacity="1"/><text fill="#000000" fill-opacity="1" font-family="Calibri,Calibri_MSFontService,sans-serif" font-style="normal" font-variant="normal" font-weight="700" font-stretch="normal" font-size="69" text-anchor="start" direction="ltr" writing-mode="lr-tb" unicode-bidi="normal" text-decoration="none" transform="matrix(1 0 0 1 2969.55 2021)">Visual </text><text fill="#000000" fill-opacity="1" font-family="Calibri,Calibri_MSFontService,sans-serif" font-style="normal" font-variant="normal" font-weight="700" font-stretch="normal" font-size="69" text-anchor="start" direction="ltr" writing-mode="lr-tb" unicode-bidi="normal" text-decoration="none" transform="matrix(1 0 0 1 2939.65 2104)">Encoder</text><path d="M3379 1715C3379 1679.1 3408.1 1650 3444 1650L3704 1650C3739.9 1650 3769 1679.1 3769 1715L3769 2104C3769 2139.9 3739.9 2169 3704 2169L3444 2169C3408.1 2169 3379 2139.9 3379 2104Z" stroke="#000000" stroke-width="8.02083" stroke-linecap="butt" stroke-linejoin="miter" stroke-miterlimit="8" stroke-opacity="1" fill="#C1E4F8" fill-rule="evenodd" fill-opacity="1"/><text fill="#000000" fill-opacity="1" font-family="Calibri,Calibri_MSFontService,sans-serif" font-style="normal" font-variant="normal" font-weight="700" font-stretch="normal" font-size="64" text-anchor="start" direction="ltr" writing-mode="lr-tb" unicode-bidi="normal" text-decoration="none" transform="matrix(1 0 0 1 3450.05 1892)">Linguistic </text><text fill="#000000" fill-opacity="1" font-family="Calibri,Calibri_MSFontService,sans-serif" font-style="normal" font-variant="normal" font-weight="700" font-stretch="normal" font-size="64" text-anchor="start" direction="ltr" writing-mode="lr-tb" unicode-bidi="normal" text-decoration="none" transform="matrix(1 0 0 1 3462.75 1969)">Decoder</text><path d="M3050.99 1909.81 3050.99 1867.99 3356.01 1867.99 3356.01 1876.01 3055 1876.01 3059.01 1872 3059.01 1909.81ZM3351.43 1858.25 3378.93 1872 3351.43 1885.75Z" fill="#000000" fill-rule="nonzero" fill-opacity="1"/><path d="M2859 2245.33C2859 2236.31 2866.31 2229 2875.33 2229L3232.67 2229C3241.69 2229 3249 2236.31 3249 2245.33L3249 2310.67C3249 2319.69 3241.69 2327 3232.67 2327L2875.33 2327C2866.31 2327 2859 2319.69 2859 2310.67Z" stroke="#000000" stroke-width="8.02083" stroke-linecap="butt" stroke-linejoin="miter" stroke-miterlimit="8" stroke-opacity="1" fill="#FFFFFF" fill-rule="evenodd" fill-opacity="1"/><text fill="#000000" fill-opacity="1" font-family="Calibri,Calibri_MSFontService,sans-serif" font-style="normal" font-variant="normal" font-weight="400" font-stretch="normal" font-size="60" text-anchor="start" direction="ltr" writing-mode="lr-tb" unicode-bidi="normal" text-decoration="none" transform="matrix(1 0 0 1 2908.08 2298)">Input Image</text><path d="M3379 2245.33C3379 2236.31 3386.31 2229 3395.33 2229L3752.67 2229C3761.69 2229 3769 2236.31 3769 2245.33L3769 2310.67C3769 2319.69 3761.69 2327 3752.67 2327L3395.33 2327C3386.31 2327 3379 2319.69 3379 2310.67Z" stroke="#000000" stroke-width="8.02083" stroke-linecap="butt" stroke-linejoin="miter" stroke-miterlimit="8" stroke-opacity="1" fill="#FFFFFF" fill-rule="evenodd" fill-opacity="1"/><text fill="#000000" fill-opacity="1" font-family="Calibri,Calibri_MSFontService,sans-serif" font-style="normal" font-variant="normal" font-weight="400" font-stretch="normal" font-size="60" text-anchor="start" direction="ltr" writing-mode="lr-tb" unicode-bidi="normal" text-decoration="none" transform="matrix(1 0 0 1 3414.04 2298)">Previous Text</text><path d="M4.01039-0.0154803 4.15398 37.1848-3.86679 37.2157-4.01039 0.0154803ZM13.8758 32.5639 0.232054 60.1167-13.624 32.67Z" fill="#000000" fill-rule="nonzero" fill-opacity="1" transform="matrix(1 0 0 -1 3574 2229.12)"/><path d="M4.00905-0.104499 4.97891 37.1033-3.0392 37.3123-4.00905 0.104499ZM14.5958 32.2678 1.56699 60.1167-12.8949 32.9844Z" fill="#000000" fill-rule="nonzero" fill-opacity="1" transform="matrix(1 0 0 -1 3054 2229.12)"/><path d="M3378 1508.17C3378 1499.24 3385.24 1492 3394.17 1492L3751.83 1492C3760.76 1492 3768 1499.24 3768 1508.17L3768 1572.83C3768 1581.76 3760.76 1589 3751.83 1589L3394.17 1589C3385.24 1589 3378 1581.76 3378 1572.83Z" stroke="#000000" stroke-width="8.02083" stroke-linecap="butt" stroke-linejoin="miter" stroke-miterlimit="8" stroke-opacity="1" fill="#FFFFFF" fill-rule="evenodd" fill-opacity="1"/><text fill="#000000" fill-opacity="1" font-family="Calibri,Calibri_MSFontService,sans-serif" font-style="normal" font-variant="normal" font-weight="400" font-stretch="normal" font-size="60" text-anchor="start" direction="ltr" writing-mode="lr-tb" unicode-bidi="normal" text-decoration="none" transform="matrix(1 0 0 1 3459.49 1561)">Gen. Text</text><path d="M3570.5 1649.22 3569.57 1612.01 3577.59 1611.81 3578.52 1649.02ZM3559.95 1616.84 3573 1589 3587.44 1616.15Z" fill="#000000" fill-rule="nonzero" fill-opacity="1"/><path d="M4005 2060.67C4005 2048.7 4014.7 2039 4026.67 2039L4893.33 2039C4905.3 2039 4915 2048.7 4915 2060.67L4915 2147.33C4915 2159.3 4905.3 2169 4893.33 2169L4026.67 2169C4014.7 2169 4005 2159.3 4005 2147.33Z" stroke="#000000" stroke-width="8.02083" stroke-linecap="butt" stroke-linejoin="miter" stroke-miterlimit="8" stroke-opacity="1" fill="#FFECA9" fill-rule="evenodd" fill-opacity="1"/><text fill="#000000" fill-opacity="1" font-family="Calibri,Calibri_MSFontService,sans-serif" font-style="normal" font-variant="normal" font-weight="700" font-stretch="normal" font-size="64" text-anchor="start" direction="ltr" writing-mode="lr-tb" unicode-bidi="normal" text-decoration="none" transform="matrix(1 0 0 1 4186.33 2126)">Muti</text><text fill="#000000" fill-opacity="1" font-family="Calibri,Calibri_MSFontService,sans-serif" font-style="normal" font-variant="normal" font-weight="700" font-stretch="normal" font-size="64" text-anchor="start" direction="ltr" writing-mode="lr-tb" unicode-bidi="normal" text-decoration="none" transform="matrix(1 0 0 1 4315.23 2126)">-</text><text fill="#000000" fill-opacity="1" font-family="Calibri,Calibri_MSFontService,sans-serif" font-style="normal" font-variant="normal" font-weight="700" font-stretch="normal" font-size="64" text-anchor="start" direction="ltr" writing-mode="lr-tb" unicode-bidi="normal" text-decoration="none" transform="matrix(1 0 0 1 4334.71 2126)">modal Encoder</text><path d="M4005 2245.33C4005 2236.31 4012.31 2229 4021.33 2229L4378.67 2229C4387.69 2229 4395 2236.31 4395 2245.33L4395 2310.67C4395 2319.69 4387.69 2327 4378.67 2327L4021.33 2327C4012.31 2327 4005 2319.69 4005 2310.67Z" stroke="#000000" stroke-width="8.02083" stroke-linecap="butt" stroke-linejoin="miter" stroke-miterlimit="8" stroke-opacity="1" fill="#FFFFFF" fill-rule="evenodd" fill-opacity="1"/><text fill="#000000" fill-opacity="1" font-family="Calibri,Calibri_MSFontService,sans-serif" font-style="normal" font-variant="normal" font-weight="400" font-stretch="normal" font-size="55" text-anchor="start" direction="ltr" writing-mode="lr-tb" unicode-bidi="normal" text-decoration="none" transform="matrix(1 0 0 1 4038.01 2296)">Masked Image </text><path d="M4525 2245.33C4525 2236.31 4532.31 2229 4541.33 2229L4898.67 2229C4907.69 2229 4915 2236.31 4915 2245.33L4915 2310.67C4915 2319.69 4907.69 2327 4898.67 2327L4541.33 2327C4532.31 2327 4525 2319.69 4525 2310.67Z" stroke="#000000" stroke-width="8.02083" stroke-linecap="butt" stroke-linejoin="miter" stroke-miterlimit="8" stroke-opacity="1" fill="#FFFFFF" fill-rule="evenodd" fill-opacity="1"/><text fill="#000000" fill-opacity="1" font-family="Calibri,Calibri_MSFontService,sans-serif" font-style="normal" font-variant="normal" font-weight="400" font-stretch="normal" font-size="55" text-anchor="start" direction="ltr" writing-mode="lr-tb" unicode-bidi="normal" text-decoration="none" transform="matrix(1 0 0 1 4580.57 2296)">Masked Text</text><path d="M4.01042-2.41069e-05 4.01064 37.1214-4.01019 37.1214-4.01042 2.41069e-05ZM13.7502 32.538 0.000360892 60.0381-13.7498 32.5381Z" fill="#000000" fill-rule="nonzero" fill-opacity="1" transform="matrix(1 0 0 -1 4720 2229.04)"/><path d="M4.01042-2.40753e-05 4.01064 37.2-4.01019 37.2001-4.01042 2.40753e-05ZM13.7502 32.6166 0.000360892 60.1167-13.7498 32.6168Z" fill="#000000" fill-rule="nonzero" fill-opacity="1" transform="matrix(1 0 0 -1 4200 2229.12)"/><path d="M4005 1849.67C4005 1837.7 4014.7 1828 4026.67 1828L4893.33 1828C4905.3 1828 4915 1837.7 4915 1849.67L4915 1936.33C4915 1948.3 4905.3 1958 4893.33 1958L4026.67 1958C4014.7 1958 4005 1948.3 4005 1936.33Z" stroke="#000000" stroke-width="8.02083" stroke-linecap="butt" stroke-linejoin="miter" stroke-miterlimit="8" stroke-opacity="1" fill="#C1E4F8" fill-rule="evenodd" fill-opacity="1"/><text fill="#000000" fill-opacity="1" font-family="Calibri,Calibri_MSFontService,sans-serif" font-style="normal" font-variant="normal" font-weight="700" font-stretch="normal" font-size="64" text-anchor="start" direction="ltr" writing-mode="lr-tb" unicode-bidi="normal" text-decoration="none" transform="matrix(1 0 0 1 4182.89 1915)">Muti</text><text fill="#000000" fill-opacity="1" font-family="Calibri,Calibri_MSFontService,sans-serif" font-style="normal" font-variant="normal" font-weight="700" font-stretch="normal" font-size="64" text-anchor="start" direction="ltr" writing-mode="lr-tb" unicode-bidi="normal" text-decoration="none" transform="matrix(1 0 0 1 4311.8 1915)">-</text><text fill="#000000" fill-opacity="1" font-family="Calibri,Calibri_MSFontService,sans-serif" font-style="normal" font-variant="normal" font-weight="700" font-stretch="normal" font-size="64" text-anchor="start" direction="ltr" writing-mode="lr-tb" unicode-bidi="normal" text-decoration="none" transform="matrix(1 0 0 1 4331.27 1915)">modal </text><text fill="#000000" fill-opacity="1" font-family="Calibri,Calibri_MSFontService,sans-serif" font-style="normal" font-variant="normal" font-weight="700" font-stretch="normal" font-size="64" text-anchor="start" direction="ltr" writing-mode="lr-tb" unicode-bidi="normal" text-decoration="none" transform="matrix(1 0 0 1 4514.04 1915)">De</text><text fill="#000000" fill-opacity="1" font-family="Calibri,Calibri_MSFontService,sans-serif" font-style="normal" font-variant="normal" font-weight="700" font-stretch="normal" font-size="64" text-anchor="start" direction="ltr" writing-mode="lr-tb" unicode-bidi="normal" text-decoration="none" transform="matrix(1 0 0 1 4586.8 1915)">coder</text><path d="M4005 1686.33C4005 1677.31 4012.31 1670 4021.33 1670L4378.67 1670C4387.69 1670 4395 1677.31 4395 1686.33L4395 1751.67C4395 1760.69 4387.69 1768 4378.67 1768L4021.33 1768C4012.31 1768 4005 1760.69 4005 1751.67Z" stroke="#000000" stroke-width="8.02083" stroke-linecap="butt" stroke-linejoin="miter" stroke-miterlimit="8" stroke-opacity="1" fill="#FFFFFF" fill-rule="evenodd" fill-opacity="1"/><text fill="#000000" fill-opacity="1" font-family="Calibri,Calibri_MSFontService,sans-serif" font-style="normal" font-variant="normal" font-weight="400" font-stretch="normal" font-size="55" text-anchor="start" direction="ltr" writing-mode="lr-tb" unicode-bidi="normal" text-decoration="none" transform="matrix(1 0 0 1 4072.93 1737)">Gen. Image</text><path d="M4525 1687.17C4525 1678.24 4532.24 1671 4541.17 1671L4898.83 1671C4907.76 1671 4915 1678.24 4915 1687.17L4915 1751.83C4915 1760.76 4907.76 1768 4898.83 1768L4541.17 1768C4532.24 1768 4525 1760.76 4525 1751.83Z" stroke="#000000" stroke-width="8.02083" stroke-linecap="butt" stroke-linejoin="miter" stroke-miterlimit="8" stroke-opacity="1" fill="#FFFFFF" fill-rule="evenodd" fill-opacity="1"/><text fill="#000000" fill-opacity="1" font-family="Calibri,Calibri_MSFontService,sans-serif" font-style="normal" font-variant="normal" font-weight="400" font-stretch="normal" font-size="55" text-anchor="start" direction="ltr" writing-mode="lr-tb" unicode-bidi="normal" text-decoration="none" transform="matrix(1 0 0 1 4615.5 1737)">Gen. Text</text><path d="M4.01042-2.40753e-05 4.01064 37.2-4.01019 37.2001-4.01042 2.40753e-05ZM13.7502 32.6166 0.000360892 60.1167-13.7498 32.6168Z" fill="#000000" fill-rule="nonzero" fill-opacity="1" transform="matrix(1 0 0 -1 4200 1828.12)"/><path d="M4.01042-2.40753e-05 4.01064 37.2-4.01019 37.2001-4.01042 2.40753e-05ZM13.7502 32.6166 0.000360892 60.1167-13.7498 32.6168Z" fill="#000000" fill-rule="nonzero" fill-opacity="1" transform="matrix(1 0 0 -1 4720 1828.12)"/><path d="M4.01042-1.783e-05 4.01068 58.257-4.01016 58.2571-4.01042 1.783e-05ZM13.7502 53.6737 0.000360892 81.1737-13.7498 53.6738Z" fill="#000000" fill-rule="nonzero" fill-opacity="1" transform="matrix(1 0 0 -1 4460 2039.17)"/><path d="M5248.33 1568 5551.67 1568C5575.6 1568 5595 1587.4 5595 1611.33L5595 1719.49 5594.88 1719.5C5581.17 1726.2 5540.72 1738.89 5522.46 1753.87 5504.2 1768.84 5490.84 1797.98 5485.31 1809.37L5479.52 1828 5248.33 1828C5224.4 1828 5205 1808.6 5205 1784.67L5205 1611.33C5205 1587.4 5224.4 1568 5248.33 1568Z" stroke="#000000" stroke-width="8.02083" stroke-linecap="butt" stroke-linejoin="miter" stroke-miterlimit="8" stroke-opacity="1" fill="#C1E4F8" fill-rule="evenodd" fill-opacity="1"/><text fill="#000000" fill-opacity="1" font-family="Calibri,Calibri_MSFontService,sans-serif" font-style="normal" font-variant="normal" font-weight="700" font-stretch="normal" font-size="64" text-anchor="start" direction="ltr" writing-mode="lr-tb" unicode-bidi="normal" text-decoration="none" transform="matrix(1 0 0 1 5257.08 1654)">Visual </text><text fill="#000000" fill-opacity="1" font-family="Calibri,Calibri_MSFontService,sans-serif" font-style="normal" font-variant="normal" font-weight="700" font-stretch="normal" font-size="64" text-anchor="start" direction="ltr" writing-mode="lr-tb" unicode-bidi="normal" text-decoration="none" transform="matrix(1 0 0 1 5257.08 1731)">Decoder</text><path d="M5885.33 1568 6188.67 1568C6212.6 1568 6232 1587.4 6232 1611.33L6232 1784.67C6232 1808.6 6212.6 1828 6188.67 1828L5957.48 1828 5951.69 1809.37C5945.17 1797.98 5932.72 1772.73 5914.46 1757.75 5896.2 1742.77 5854.85 1726.2 5842.12 1719.5L5842 1719.49 5842 1611.33C5842 1587.4 5861.4 1568 5885.33 1568Z" stroke="#000000" stroke-width="8.02083" stroke-linecap="butt" stroke-linejoin="miter" stroke-miterlimit="8" stroke-opacity="1" fill="#C1E4F8" fill-rule="evenodd" fill-opacity="1"/><text fill="#000000" fill-opacity="1" font-family="Calibri,Calibri_MSFontService,sans-serif" font-style="normal" font-variant="normal" font-weight="700" font-stretch="normal" font-size="64" text-anchor="start" direction="ltr" writing-mode="lr-tb" unicode-bidi="normal" text-decoration="none" transform="matrix(1 0 0 1 5931.02 1654)">Linguistic </text><text fill="#000000" fill-opacity="1" font-family="Calibri,Calibri_MSFontService,sans-serif" font-style="normal" font-variant="normal" font-weight="700" font-stretch="normal" font-size="64" text-anchor="start" direction="ltr" writing-mode="lr-tb" unicode-bidi="normal" text-decoration="none" transform="matrix(1 0 0 1 5956.41 1731)">Decoder</text><path d="M5248.33 1909 5479.52 1909 5485.31 1927.63C5492.14 1939.62 5502.25 1965.92 5520.52 1980.9 5538.78 1995.88 5582.46 2011.4 5594.88 2017.5L5595 2017.51 5595 2125.67C5595 2149.6 5575.6 2169 5551.67 2169L5248.33 2169C5224.4 2169 5205 2149.6 5205 2125.67L5205 1952.33C5205 1928.4 5224.4 1909 5248.33 1909Z" stroke="#000000" stroke-width="8.02083" stroke-linecap="butt" stroke-linejoin="miter" stroke-miterlimit="8" stroke-opacity="1" fill="#FFECA9" fill-rule="evenodd" fill-opacity="1"/><text fill="#000000" fill-opacity="1" font-family="Calibri,Calibri_MSFontService,sans-serif" font-style="normal" font-variant="normal" font-weight="700" font-stretch="normal" font-size="64" text-anchor="start" direction="ltr" writing-mode="lr-tb" unicode-bidi="normal" text-decoration="none" transform="matrix(1 0 0 1 5257.08 2049)">Visual </text><text fill="#000000" fill-opacity="1" font-family="Calibri,Calibri_MSFontService,sans-serif" font-style="normal" font-variant="normal" font-weight="700" font-stretch="normal" font-size="64" text-anchor="start" direction="ltr" writing-mode="lr-tb" unicode-bidi="normal" text-decoration="none" transform="matrix(1 0 0 1 5257.08 2126)">Encoder</text><path d="M5957.48 1909 6188.67 1909C6212.6 1909 6232 1928.4 6232 1952.33L6232 2125.67C6232 2149.6 6212.6 2169 6188.67 2169L5885.33 2169C5861.4 2169 5842 2149.6 5842 2125.67L5842 2017.51 5842.12 2017.5C5855.17 2010.43 5902.03 1990.05 5920.29 1975.07 5938.55 1960.09 5945.49 1938.65 5951.69 1927.63L5957.48 1909Z" stroke="#000000" stroke-width="8.02083" stroke-linecap="butt" stroke-linejoin="miter" stroke-miterlimit="8" stroke-opacity="1" fill="#FFECA9" fill-rule="evenodd" fill-opacity="1"/><text fill="#000000" fill-opacity="1" font-family="Calibri,Calibri_MSFontService,sans-serif" font-style="normal" font-variant="normal" font-weight="700" font-stretch="normal" font-size="64" text-anchor="start" direction="ltr" writing-mode="lr-tb" unicode-bidi="normal" text-decoration="none" transform="matrix(1 0 0 1 5931.02 2049)">Linguistic </text><text fill="#000000" fill-opacity="1" font-family="Calibri,Calibri_MSFontService,sans-serif" font-style="normal" font-variant="normal" font-weight="700" font-stretch="normal" font-size="64" text-anchor="start" direction="ltr" writing-mode="lr-tb" unicode-bidi="normal" text-decoration="none" transform="matrix(1 0 0 1 5963.28 2126)">Encoder</text><path d="M5524 1868.5C5524 1814.65 5567.65 1771 5621.5 1771L5815.5 1771C5869.35 1771 5913 1814.65 5913 1868.5L5913 1868.5C5913 1922.35 5869.35 1966 5815.5 1966L5621.5 1966C5567.65 1966 5524 1922.35 5524 1868.5Z" stroke="#000000" stroke-width="8.02083" stroke-linecap="butt" stroke-linejoin="miter" stroke-miterlimit="8" stroke-opacity="1" fill="#FDE0E1" fill-rule="evenodd" fill-opacity="1"/><text fill="#000000" fill-opacity="1" font-family="Calibri,Calibri_MSFontService,sans-serif" font-style="normal" font-variant="normal" font-weight="700" font-stretch="normal" font-size="55" text-anchor="start" direction="ltr" writing-mode="lr-tb" unicode-bidi="normal" text-decoration="none" transform="matrix(1 0 0 1 5575.53 1854)">Multi</text><text fill="#000000" fill-opacity="1" font-family="Calibri,Calibri_MSFontService,sans-serif" font-style="normal" font-variant="normal" font-weight="700" font-stretch="normal" font-size="55" text-anchor="start" direction="ltr" writing-mode="lr-tb" unicode-bidi="normal" text-decoration="none" transform="matrix(1 0 0 1 5699.86 1854)">-</text><text fill="#000000" fill-opacity="1" font-family="Calibri,Calibri_MSFontService,sans-serif" font-style="normal" font-variant="normal" font-weight="700" font-stretch="normal" font-size="55" text-anchor="start" direction="ltr" writing-mode="lr-tb" unicode-bidi="normal" text-decoration="none" transform="matrix(1 0 0 1 5716.47 1854)">modal </text><text fill="#000000" fill-opacity="1" font-family="Calibri,Calibri_MSFontService,sans-serif" font-style="normal" font-variant="normal" font-weight="700" font-stretch="normal" font-size="55" text-anchor="start" direction="ltr" writing-mode="lr-tb" unicode-bidi="normal" text-decoration="none" transform="matrix(1 0 0 1 5643.44 1920)">Fusion</text><path d="M2.48543-3.14739 27.2062 16.3741 22.2353 22.6689-2.48543 3.14739ZM29.6452 5.88993 42.7058 33.7239 12.6022 27.472Z" fill="#000000" fill-rule="nonzero" fill-opacity="1" transform="matrix(1 0 0 -1 5520 1981.72)"/><path d="M2.48299-3.14932 25.4853 14.9862 20.5194 21.2849-2.48299 3.14932ZM27.9162 4.50017 40.9985 32.324 10.89 26.0955Z" fill="#000000" fill-rule="nonzero" fill-opacity="1" transform="matrix(1 0 0 -1 5873 1790.32)"/><path d="M5912.42 1984.28 5887.69 1965.18 5892.59 1958.83 5917.33 1977.93ZM5885.36 1975.69 5872 1948 5902.17 1953.92Z" fill="#000000" fill-rule="nonzero" fill-opacity="1"/><path d="M5560.42 1794.28 5535.69 1775.18 5540.59 1768.83 5565.33 1787.93ZM5533.36 1785.69 5520 1758 5550.17 1763.92Z" fill="#000000" fill-rule="nonzero" fill-opacity="1"/><path d="M5204 2247.33C5204 2238.31 5211.31 2231 5220.33 2231L5577.67 2231C5586.69 2231 5594 2238.31 5594 2247.33L5594 2312.67C5594 2321.69 5586.69 2329 5577.67 2329L5220.33 2329C5211.31 2329 5204 2321.69 5204 2312.67Z" stroke="#000000" stroke-width="8.02083" stroke-linecap="butt" stroke-linejoin="miter" stroke-miterlimit="8" stroke-opacity="1" fill="#FFFFFF" fill-rule="evenodd" fill-opacity="1"/><text fill="#000000" fill-opacity="1" font-family="Calibri,Calibri_MSFontService,sans-serif" font-style="normal" font-variant="normal" font-weight="400" font-stretch="normal" font-size="55" text-anchor="start" direction="ltr" writing-mode="lr-tb" unicode-bidi="normal" text-decoration="none" transform="matrix(1 0 0 1 5237.07 2298)">Masked Image </text><path d="M5841 2245.33C5841 2236.31 5848.31 2229 5857.33 2229L6214.67 2229C6223.69 2229 6231 2236.31 6231 2245.33L6231 2310.67C6231 2319.69 6223.69 2327 6214.67 2327L5857.33 2327C5848.31 2327 5841 2319.69 5841 2310.67Z" stroke="#000000" stroke-width="8.02083" stroke-linecap="butt" stroke-linejoin="miter" stroke-miterlimit="8" stroke-opacity="1" fill="#FFFFFF" fill-rule="evenodd" fill-opacity="1"/><text fill="#000000" fill-opacity="1" font-family="Calibri,Calibri_MSFontService,sans-serif" font-style="normal" font-variant="normal" font-weight="400" font-stretch="normal" font-size="55" text-anchor="start" direction="ltr" writing-mode="lr-tb" unicode-bidi="normal" text-decoration="none" transform="matrix(1 0 0 1 5896.92 2296)">Masked Text</text><path d="M4.01005-0.0538671 4.50956 37.1309-3.51055 37.2387-4.01005 0.0538671ZM14.1867 32.4172 0.807316 60.0994-13.3108 32.7866Z" fill="#000000" fill-rule="nonzero" fill-opacity="1" transform="matrix(1 0 0 -1 6036 2229.1)"/><path d="M4.01042-2.33715e-05 4.01064 39.0103-4.01019 39.0103-4.01042 2.33715e-05ZM13.7502 34.4269 0.000360892 61.927-13.7498 34.427Z" fill="#000000" fill-rule="nonzero" fill-opacity="1" transform="matrix(1 0 0 -1 5399 2230.93)"/><path d="M5204 1424.33C5204 1415.31 5211.31 1408 5220.33 1408L5577.67 1408C5586.69 1408 5594 1415.31 5594 1424.33L5594 1489.67C5594 1498.69 5586.69 1506 5577.67 1506L5220.33 1506C5211.31 1506 5204 1498.69 5204 1489.67Z" stroke="#000000" stroke-width="8.02083" stroke-linecap="butt" stroke-linejoin="miter" stroke-miterlimit="8" stroke-opacity="1" fill="#FFFFFF" fill-rule="evenodd" fill-opacity="1"/><text fill="#000000" fill-opacity="1" font-family="Calibri,Calibri_MSFontService,sans-serif" font-style="normal" font-variant="normal" font-weight="400" font-stretch="normal" font-size="55" text-anchor="start" direction="ltr" writing-mode="lr-tb" unicode-bidi="normal" text-decoration="none" transform="matrix(1 0 0 1 5271.99 1475)">Gen. Image</text><path d="M5841 1424.17C5841 1415.24 5848.24 1408 5857.17 1408L6214.83 1408C6223.76 1408 6231 1415.24 6231 1424.17L6231 1488.83C6231 1497.76 6223.76 1505 6214.83 1505L5857.17 1505C5848.24 1505 5841 1497.76 5841 1488.83Z" stroke="#000000" stroke-width="8.02083" stroke-linecap="butt" stroke-linejoin="miter" stroke-miterlimit="8" stroke-opacity="1" fill="#FFFFFF" fill-rule="evenodd" fill-opacity="1"/><text fill="#000000" fill-opacity="1" font-family="Calibri,Calibri_MSFontService,sans-serif" font-style="normal" font-variant="normal" font-weight="400" font-stretch="normal" font-size="55" text-anchor="start" direction="ltr" writing-mode="lr-tb" unicode-bidi="normal" text-decoration="none" transform="matrix(1 0 0 1 5931.84 1474)">Gen. Text</text><path d="M4.01042-2.33715e-05 4.01064 39.0103-4.01019 39.0103-4.01042 2.33715e-05ZM13.7502 34.4269 0.000360892 61.927-13.7498 34.427Z" fill="#000000" fill-rule="nonzero" fill-opacity="1" transform="matrix(1 0 0 -1 5399 1567.93)"/><path d="M4.01042-2.29562e-05 4.01065 40.1309-4.01019 40.1309-4.01042 2.29562e-05ZM13.7502 35.5475 0.000360892 63.0475-13.7498 35.5476Z" fill="#000000" fill-rule="nonzero" fill-opacity="1" transform="matrix(1 0 0 -1 6036 1568.05)"/><path d="M6231 1451.99 6255.06 1451.99 6255.06 1460.01 6231 1460.01ZM6263.08 1451.99 6287.15 1451.99 6287.15 1460.01 6263.08 1460.01ZM6295.17 1451.99 6317.51 1451.99 6317.51 1461.73 6309.49 1461.73 6309.49 1456 6313.5 1460.01 6295.17 1460.01ZM6317.51 1469.75 6317.51 1493.81 6309.49 1493.81 6309.49 1469.75ZM6317.51 1501.83 6317.51 1525.9 6309.49 1525.9 6309.49 1501.83ZM6317.51 1533.92 6317.51 1557.98 6309.49 1557.98 6309.49 1533.92ZM6317.51 1566 6317.51 1590.06 6309.49 1590.06 6309.49 1566ZM6317.51 1598.08 6317.51 1622.15 6309.49 1622.15 6309.49 1598.08ZM6317.51 1630.17 6317.51 1654.23 6309.49 1654.23 6309.49 1630.17ZM6317.51 1662.25 6317.51 1686.31 6309.49 1686.31 6309.49 1662.25ZM6317.51 1694.33 6317.51 1718.4 6309.49 1718.4 6309.49 1694.33ZM6317.51 1726.42 6317.51 1750.48 6309.49 1750.48 6309.49 1726.42ZM6317.51 1758.5 6317.51 1782.56 6309.49 1782.56 6309.49 1758.5ZM6317.51 1790.58 6317.51 1814.65 6309.49 1814.65 6309.49 1790.58ZM6317.51 1822.67 6317.51 1846.73 6309.49 1846.73 6309.49 1822.67ZM6317.51 1854.75 6317.51 1878.81 6309.49 1878.81 6309.49 1854.75ZM6317.51 1886.83 6317.51 1910.9 6309.49 1910.9 6309.49 1886.83ZM6317.51 1918.92 6317.51 1942.98 6309.49 1942.98 6309.49 1918.92ZM6317.51 1951 6317.51 1975.06 6309.49 1975.06 6309.49 1951ZM6317.51 1983.08 6317.51 2007.15 6309.49 2007.15 6309.49 1983.08ZM6317.51 2015.17 6317.51 2043.08 6313.34 2043.08 6313.34 2035.06 6313.5 2035.06 6309.49 2039.07 6309.49 2015.17ZM6305.32 2043.08 6281.26 2043.08 6281.26 2035.06 6305.32 2035.06ZM6273.24 2043.08 6258.5 2043.08 6258.5 2035.06 6273.24 2035.06ZM6263.08 2052.82 6235.58 2039.07 6263.08 2025.32Z" fill="#000000" fill-rule="nonzero" fill-opacity="1"/><path d="M5204 1461.01 5179.94 1461.01 5179.94 1452.99 5204 1452.99ZM5171.92 1461.01 5147.85 1461.01 5147.85 1452.99 5171.92 1452.99ZM5139.83 1461.01 5121.5 1461.01 5125.51 1457 5125.51 1462.73 5117.49 1462.73 5117.49 1452.99 5139.83 1452.99ZM5125.51 1470.75 5125.51 1494.81 5117.49 1494.81 5117.49 1470.75ZM5125.51 1502.83 5125.51 1526.9 5117.49 1526.9 5117.49 1502.83ZM5125.51 1534.92 5125.51 1558.98 5117.49 1558.98 5117.49 1534.92ZM5125.51 1567 5125.51 1591.06 5117.49 1591.06 5117.49 1567ZM5125.51 1599.08 5125.51 1623.15 5117.49 1623.15 5117.49 1599.08ZM5125.51 1631.17 5125.51 1655.23 5117.49 1655.23 5117.49 1631.17ZM5125.51 1663.25 5125.51 1687.31 5117.49 1687.31 5117.49 1663.25ZM5125.51 1695.33 5125.51 1719.4 5117.49 1719.4 5117.49 1695.33ZM5125.51 1727.42 5125.51 1751.48 5117.49 1751.48 5117.49 1727.42ZM5125.51 1759.5 5125.51 1783.56 5117.49 1783.56 5117.49 1759.5ZM5125.51 1791.58 5125.51 1815.65 5117.49 1815.65 5117.49 1791.58ZM5125.51 1823.67 5125.51 1847.73 5117.49 1847.73 5117.49 1823.67ZM5125.51 1855.75 5125.51 1879.81 5117.49 1879.81 5117.49 1855.75ZM5125.51 1887.83 5125.51 1911.9 5117.49 1911.9 5117.49 1887.83ZM5125.51 1919.92 5125.51 1943.98 5117.49 1943.98 5117.49 1919.92ZM5125.51 1952 5125.51 1976.06 5117.49 1976.06 5117.49 1952ZM5125.51 1984.08 5125.51 2008.15 5117.49 2008.15 5117.49 1984.08ZM5125.51 2016.17 5125.51 2039.49 5121.5 2035.48 5122.24 2035.48 5122.24 2043.5 5117.49 2043.5 5117.49 2016.17ZM5130.26 2035.48 5154.32 2035.48 5154.32 2043.5 5130.26 2043.5ZM5162.34 2035.48 5183 2035.48 5183 2043.5 5162.34 2043.5ZM5178.42 2025.74 5205.92 2039.49 5178.42 2053.24Z" fill="#000000" fill-rule="nonzero" fill-opacity="1"/><text fill="#000000" fill-opacity="1" font-family="Calibri,Calibri_MSFontService,sans-serif" font-style="normal" font-variant="normal" font-weight="400" font-stretch="normal" font-size="73" text-anchor="start" direction="ltr" writing-mode="lr-tb" unicode-bidi="normal" text-decoration="none" transform="matrix(1 0 0 1 2858.81 2470)">a) Encoder</text><text fill="#000000" fill-opacity="1" font-family="Calibri,Calibri_MSFontService,sans-serif" font-style="normal" font-variant="normal" font-weight="400" font-stretch="normal" font-size="73" text-anchor="start" direction="ltr" writing-mode="lr-tb" unicode-bidi="normal" text-decoration="none" transform="matrix(1 0 0 1 3175.15 2470)">-</text><text fill="#000000" fill-opacity="1" font-family="Calibri,Calibri_MSFontService,sans-serif" font-style="normal" font-variant="normal" font-weight="400" font-stretch="normal" font-size="73" text-anchor="start" direction="ltr" writing-mode="lr-tb" unicode-bidi="normal" text-decoration="none" transform="matrix(1 0 0 1 3197.5 2470)">Decoder Architecture</text><text fill="#000000" fill-opacity="1" font-family="Calibri,Calibri_MSFontService,sans-serif" font-style="normal" font-variant="normal" font-weight="400" font-stretch="normal" font-size="73" text-anchor="start" direction="ltr" writing-mode="lr-tb" unicode-bidi="normal" text-decoration="none" transform="matrix(1 0 0 1 4005.3 2470)">b) Multi</text><text fill="#000000" fill-opacity="1" font-family="Calibri,Calibri_MSFontService,sans-serif" font-style="normal" font-variant="normal" font-weight="400" font-stretch="normal" font-size="73" text-anchor="start" direction="ltr" writing-mode="lr-tb" unicode-bidi="normal" text-decoration="none" transform="matrix(1 0 0 1 4241.34 2470)">-</text><text fill="#000000" fill-opacity="1" font-family="Calibri,Calibri_MSFontService,sans-serif" font-style="normal" font-variant="normal" font-weight="400" font-stretch="normal" font-size="73" text-anchor="start" direction="ltr" writing-mode="lr-tb" unicode-bidi="normal" text-decoration="none" transform="matrix(1 0 0 1 4263.68 2470)">modal Autoencoder</text><text fill="#000000" fill-opacity="1" font-family="Calibri,Calibri_MSFontService,sans-serif" font-style="normal" font-variant="normal" font-weight="400" font-stretch="normal" font-size="73" text-anchor="start" direction="ltr" writing-mode="lr-tb" unicode-bidi="normal" text-decoration="none" transform="matrix(1 0 0 1 5130.98 2470)">c) Proposed </text><text fill="#000000" fill-opacity="1" font-family="Calibri,Calibri_MSFontService,sans-serif" font-style="normal" font-variant="normal" font-weight="400" font-stretch="normal" font-size="73" text-anchor="start" direction="ltr" writing-mode="lr-tb" unicode-bidi="normal" text-decoration="none" transform="matrix(1 0 0 1 5499.9 2470)">Framework</text></g></g></svg>