<svg width="4363" height="1155" xmlns="http://www.w3.org/2000/svg" xmlns:xlink="http://www.w3.org/1999/xlink" xml:space="preserve" overflow="hidden"><defs><clipPath id="clip0"><path d="M5323.32 1515.87 5242.63 1688.6 5415.39 1769.28 5496.08 1596.55Z" fill-rule="evenodd" clip-rule="evenodd"/></clipPath><clipPath id="clip1"><path d="M5323.32 1515.87 5242.63 1688.6 5415.39 1769.28 5496.08 1596.55Z" fill-rule="evenodd" clip-rule="evenodd"/></clipPath><clipPath id="clip2"><path d="M5323.32 1515.87 5242.63 1688.6 5415.39 1769.28 5496.08 1596.55Z" fill-rule="evenodd" clip-rule="evenodd"/></clipPath><clipPath id="clip3"><path d="M4884.29 2331.28 4999.65 2179.49 4847.83 2064.15 4732.47 2215.94Z" fill-rule="evenodd" clip-rule="evenodd"/></clipPath><clipPath id="clip4"><path d="M4884.29 2331.28 4999.65 2179.49 4847.83 2064.15 4732.47 2215.94Z" fill-rule="evenodd" clip-rule="evenodd"/></clipPath><clipPath id="clip5"><path d="M4884.29 2331.28 4999.65 2179.49 4847.83 2064.15 4732.47 2215.94Z" fill-rule="evenodd" clip-rule="evenodd"/></clipPath><clipPath id="clip6"><path d="M6062.52 1515.87 6143.21 1688.6 5970.46 1769.28 5889.76 1596.55Z" fill-rule="evenodd" clip-rule="evenodd"/></clipPath><clipPath id="clip7"><path d="M6062.52 1515.87 6143.21 1688.6 5970.46 1769.28 5889.76 1596.55Z" fill-rule="evenodd" clip-rule="evenodd"/></clipPath><clipPath id="clip8"><path d="M6062.52 1515.87 6143.21 1688.6 5970.46 1769.28 5889.76 1596.55Z" fill-rule="evenodd" clip-rule="evenodd"/></clipPath><clipPath id="clip9"><path d="M5556.86 2001.1 5691.68 2135.9 5556.86 2270.7 5422.03 2135.9Z" fill-rule="evenodd" clip-rule="evenodd"/></clipPath><clipPath id="clip10"><path d="M5556.86 2001.1 5691.68 2135.9 5556.86 2270.7 5422.03 2135.9Z" fill-rule="evenodd" clip-rule="evenodd"/></clipPath><clipPath id="clip11"><path d="M5556.86 2001.1 5691.68 2135.9 5556.86 2270.7 5422.03 2135.9Z" fill-rule="evenodd" clip-rule="evenodd"/></clipPath><clipPath id="clip12"><path d="M5826.84 2001.1 5692.01 2135.9 5826.84 2270.7 5961.66 2135.9Z" fill-rule="evenodd" clip-rule="evenodd"/></clipPath><clipPath id="clip13"><path d="M5826.84 2001.1 5692.01 2135.9 5826.84 2270.7 5961.66 2135.9Z" fill-rule="evenodd" clip-rule="evenodd"/></clipPath><clipPath id="clip14"><path d="M5826.84 2001.1 5692.01 2135.9 5826.84 2270.7 5961.66 2135.9Z" fill-rule="evenodd" clip-rule="evenodd"/></clipPath><clipPath id="clip15"><path d="M6532.61 2331.28 6417.25 2179.49 6569.06 2064.15 6684.43 2215.94Z" fill-rule="evenodd" clip-rule="evenodd"/></clipPath><clipPath id="clip16"><path d="M6532.61 2331.28 6417.25 2179.49 6569.06 2064.15 6684.43 2215.94Z" fill-rule="evenodd" clip-rule="evenodd"/></clipPath><clipPath id="clip17"><path d="M6532.61 2331.28 6417.25 2179.49 6569.06 2064.15 6684.43 2215.94Z" fill-rule="evenodd" clip-rule="evenodd"/></clipPath><clipPath id="clip18"><path d="M3000.63 1515.9 2919.9 1688.81 3092.74 1769.58 3173.48 1596.67Z" fill-rule="evenodd" clip-rule="evenodd"/></clipPath><clipPath id="clip19"><path d="M3000.63 1515.9 2919.9 1688.81 3092.74 1769.58 3173.48 1596.67Z" fill-rule="evenodd" clip-rule="evenodd"/></clipPath><clipPath id="clip20"><path d="M3000.63 1515.9 2919.9 1688.81 3092.74 1769.58 3173.48 1596.67Z" fill-rule="evenodd" clip-rule="evenodd"/></clipPath><clipPath id="clip21"><path d="M2561.38 2332.2 2676.8 2180.24 2524.9 2064.78 2409.49 2216.74Z" fill-rule="evenodd" clip-rule="evenodd"/></clipPath><clipPath id="clip22"><path d="M2561.38 2332.2 2676.8 2180.24 2524.9 2064.78 2409.49 2216.74Z" fill-rule="evenodd" clip-rule="evenodd"/></clipPath><clipPath id="clip23"><path d="M2561.38 2332.2 2676.8 2180.24 2524.9 2064.78 2409.49 2216.74Z" fill-rule="evenodd" clip-rule="evenodd"/></clipPath><clipPath id="clip24"><path d="M3740.19 1515.9 3820.93 1688.81 3648.09 1769.58 3567.35 1596.67Z" fill-rule="evenodd" clip-rule="evenodd"/></clipPath><clipPath id="clip25"><path d="M3740.19 1515.9 3820.93 1688.81 3648.09 1769.58 3567.35 1596.67Z" fill-rule="evenodd" clip-rule="evenodd"/></clipPath><clipPath id="clip26"><path d="M3740.19 1515.9 3820.93 1688.81 3648.09 1769.58 3567.35 1596.67Z" fill-rule="evenodd" clip-rule="evenodd"/></clipPath><clipPath id="clip27"><path d="M3234.28 2001.66 3369.17 2136.61 3234.28 2271.56 3099.39 2136.61Z" fill-rule="evenodd" clip-rule="evenodd"/></clipPath><clipPath id="clip28"><path d="M3234.28 2001.66 3369.17 2136.61 3234.28 2271.56 3099.39 2136.61Z" fill-rule="evenodd" clip-rule="evenodd"/></clipPath><clipPath id="clip29"><path d="M3234.28 2001.66 3369.17 2136.61 3234.28 2271.56 3099.39 2136.61Z" fill-rule="evenodd" clip-rule="evenodd"/></clipPath><clipPath id="clip30"><path d="M3504.4 2001.66 3369.5 2136.61 3504.4 2271.56 3639.29 2136.61Z" fill-rule="evenodd" clip-rule="evenodd"/></clipPath><clipPath id="clip31"><path d="M3504.4 2001.66 3369.5 2136.61 3504.4 2271.56 3639.29 2136.61Z" fill-rule="evenodd" clip-rule="evenodd"/></clipPath><clipPath id="clip32"><path d="M3504.4 2001.66 3369.5 2136.61 3504.4 2271.56 3639.29 2136.61Z" fill-rule="evenodd" clip-rule="evenodd"/></clipPath><clipPath id="clip33"><path d="M4210.51 2332.2 4095.09 2180.24 4246.99 2064.78 4362.41 2216.74Z" fill-rule="evenodd" clip-rule="evenodd"/></clipPath><clipPath id="clip34"><path d="M4210.51 2332.2 4095.09 2180.24 4246.99 2064.78 4362.41 2216.74Z" fill-rule="evenodd" clip-rule="evenodd"/></clipPath><clipPath id="clip35"><path d="M4210.51 2332.2 4095.09 2180.24 4246.99 2064.78 4362.41 2216.74Z" fill-rule="evenodd" clip-rule="evenodd"/></clipPath></defs><g transform="translate(-2365 -1251)"><g><g><g><g><path d="M2681.2 1376.17 2674.9 1376.17C2671.65 1376.17 2669.63 1379.69 2671.26 1382.5L2673.35 1386.1C2674.11 1387.4 2674.11 1389.01 2673.36 1390.31L2672.16 1392.4C2671.41 1393.7 2670.01 1394.51 2668.5 1394.51L2666.12 1394.51C2664.61 1394.51 2663.22 1393.71 2662.46 1392.4L2654.28 1378.22C2653.53 1376.92 2652.13 1376.11 2650.63 1376.11L2636.56 1376.11C2633.32 1376.11 2631.29 1379.61 2632.91 1382.42L2639.94 1394.6C2640.69 1395.91 2642.08 1396.71 2643.59 1396.71L2659.98 1396.71C2661.5 1396.71 2662.89 1397.52 2663.64 1398.82L2664.85 1400.91C2665.59 1402.21 2665.59 1403.81 2664.85 1405.11L2663.64 1407.2C2662.89 1408.51 2661.5 1409.31 2659.98 1409.31L2655.72 1409.31C2652.47 1409.31 2650.44 1412.83 2652.07 1415.63L2655.23 1421.1C2655.99 1422.41 2655.99 1424.01 2655.24 1425.31L2654.04 1427.39C2653.28 1428.7 2651.89 1429.51 2650.39 1429.51L2647.99 1429.51C2646.49 1429.51 2645.1 1428.71 2644.35 1427.4L2641.18 1421.94C2639.55 1419.13 2635.5 1419.13 2633.87 1421.94L2631.75 1425.63C2630.99 1426.94 2629.6 1427.74 2628.09 1427.74L2625.7 1427.74C2624.2 1427.74 2622.8 1426.94 2622.05 1425.63L2620.85 1423.54C2620.1 1422.24 2620.1 1420.64 2620.85 1419.34L2629.05 1405.14C2629.79 1403.85 2629.8 1402.24 2629.05 1400.94L2622.03 1388.78C2620.41 1385.97 2616.35 1385.97 2614.72 1388.78L2607.71 1400.95C2606.96 1402.24 2606.96 1403.85 2607.71 1405.14L2615.92 1419.45C2616.66 1420.75 2616.66 1422.34 2615.91 1423.64L2614.7 1425.74C2613.95 1427.04 2612.56 1427.85 2611.05 1427.85L2608.67 1427.85C2607.16 1427.85 2605.77 1427.04 2605.01 1425.74L2602.88 1422.04C2601.27 1419.23 2597.2 1419.23 2595.58 1422.04L2592.41 1427.51C2591.66 1428.81 2590.27 1429.61 2588.76 1429.61L2586.37 1429.61C2584.87 1429.61 2583.47 1428.81 2582.72 1427.5L2581.52 1425.41C2580.77 1424.11 2580.77 1422.51 2581.52 1421.21L2584.69 1415.73C2586.32 1412.93 2584.29 1409.42 2581.04 1409.42L2576.77 1409.42C2575.26 1409.42 2573.87 1408.61 2573.12 1407.31L2571.91 1405.22C2571.16 1403.92 2571.16 1402.32 2571.91 1401.02L2573.12 1398.93C2573.87 1397.62 2575.26 1396.81 2576.77 1396.81L2593.17 1396.81C2594.68 1396.81 2596.07 1396.01 2596.82 1394.7L2603.84 1382.52C2605.46 1379.72 2603.43 1376.21 2600.19 1376.21L2586.13 1376.21C2584.63 1376.21 2583.23 1377.02 2582.48 1378.32L2574.29 1392.5C2573.54 1393.81 2572.15 1394.61 2570.64 1394.61L2568.25 1394.61C2566.74 1394.61 2565.35 1393.81 2564.6 1392.5L2563.39 1390.41C2562.64 1389.11 2562.64 1387.51 2563.39 1386.21L2565.53 1382.49C2567.15 1379.68 2565.13 1376.18 2561.88 1376.18L2555.57 1376.18C2554.06 1376.18 2552.67 1375.37 2551.92 1374.07L2550.72 1371.99C2549.97 1370.68 2549.97 1369.07 2550.73 1367.77L2551.91 1365.76C2552.67 1364.47 2554.05 1363.68 2555.55 1363.68L2561.89 1363.68C2565.13 1363.68 2567.16 1360.18 2565.55 1357.37L2563.4 1353.65C2562.65 1352.35 2562.65 1350.75 2563.4 1349.45L2564.61 1347.36C2565.36 1346.05 2566.75 1345.24 2568.26 1345.24L2570.65 1345.24C2572.15 1345.24 2573.55 1346.05 2574.3 1347.35L2582.49 1361.54C2583.24 1362.84 2584.63 1363.64 2586.14 1363.64L2600.2 1363.64C2603.44 1363.64 2605.47 1360.14 2603.85 1357.33L2596.83 1345.15C2596.08 1343.85 2594.69 1343.04 2593.18 1343.04L2576.78 1343.04C2575.27 1343.04 2573.88 1342.24 2573.13 1340.93L2571.92 1338.84C2571.17 1337.54 2571.17 1335.94 2571.92 1334.64L2573.13 1332.55C2573.88 1331.24 2575.27 1330.44 2576.78 1330.44L2581.05 1330.44C2584.29 1330.44 2586.33 1326.93 2584.7 1324.12L2581.53 1318.65C2580.78 1317.35 2580.78 1315.74 2581.53 1314.44L2582.73 1312.36C2583.48 1311.05 2584.88 1310.24 2586.38 1310.24L2588.78 1310.24C2590.28 1310.24 2591.67 1311.05 2592.42 1312.35L2595.58 1317.79C2597.2 1320.6 2601.27 1320.59 2602.89 1317.77L2605.02 1314.03C2605.78 1312.71 2607.17 1311.9 2608.68 1311.9L2611.06 1311.9C2612.57 1311.9 2613.96 1312.71 2614.71 1314.02L2615.92 1316.1C2616.67 1317.41 2616.67 1319 2615.92 1320.31L2607.72 1334.5C2606.97 1335.81 2606.97 1337.41 2607.72 1338.7L2614.73 1350.87C2616.36 1353.68 2620.42 1353.68 2622.04 1350.87L2629.05 1338.7C2629.8 1337.41 2629.8 1335.81 2629.05 1334.5L2620.86 1320.31C2620.11 1319.01 2620.1 1317.41 2620.85 1316.1L2622.06 1314.02C2622.81 1312.71 2624.21 1311.9 2625.71 1311.9L2628.1 1311.9C2629.61 1311.9 2631 1312.71 2631.75 1314.01L2633.88 1317.71C2635.5 1320.52 2639.56 1320.52 2641.19 1317.72L2644.35 1312.24C2645.11 1310.94 2646.5 1310.14 2648 1310.14L2650.39 1310.14C2651.9 1310.14 2653.29 1310.94 2654.04 1312.25L2655.25 1314.34C2656 1315.64 2656 1317.24 2655.24 1318.54L2652.08 1324.02C2650.45 1326.82 2652.48 1330.33 2655.73 1330.33L2659.99 1330.33C2661.5 1330.33 2662.89 1331.14 2663.65 1332.44L2664.85 1334.54C2665.6 1335.83 2665.6 1337.43 2664.85 1338.73L2663.65 1340.82C2662.9 1342.13 2661.5 1342.94 2659.99 1342.94L2643.59 1342.94C2642.09 1342.94 2640.7 1343.74 2639.94 1345.05L2632.92 1357.23C2631.3 1360.03 2633.33 1363.54 2636.57 1363.54L2650.64 1363.54C2652.14 1363.54 2653.53 1362.74 2654.29 1361.43L2662.47 1347.25C2663.22 1345.94 2664.62 1345.14 2666.12 1345.14L2668.51 1345.14C2670.02 1345.14 2671.41 1345.94 2672.17 1347.25L2673.37 1349.34C2674.12 1350.64 2674.12 1352.24 2673.37 1353.54L2671.23 1357.26C2669.61 1360.07 2671.64 1363.57 2674.88 1363.57L2681.21 1363.57C2682.71 1363.57 2684.11 1364.38 2684.86 1365.68L2686.06 1367.77C2686.82 1369.08 2686.82 1370.67 2686.06 1371.97L2684.86 1374.06C2684.11 1375.37 2682.71 1376.17 2681.21 1376.17Z" stroke="#2DA5E7" stroke-width="3.24643" stroke-linecap="butt" stroke-linejoin="miter" stroke-miterlimit="8" stroke-opacity="1" fill="#2DA5E7" fill-rule="evenodd" fill-opacity="1" transform="matrix(1.00018 0 0 1 3544.22 957.572)"/><path d="M1733.93 1376.17 1727.62 1376.17C1724.35 1376.17 1722.32 1379.69 1723.96 1382.5L1726.06 1386.1C1726.82 1387.4 1726.82 1389.01 1726.07 1390.31L1724.86 1392.4C1724.11 1393.7 1722.7 1394.51 1721.19 1394.51L1718.8 1394.51C1717.29 1394.51 1715.89 1393.71 1715.13 1392.4L1706.92 1378.22C1706.16 1376.92 1704.76 1376.11 1703.25 1376.11L1689.14 1376.11C1685.89 1376.11 1683.85 1379.61 1685.48 1382.42L1692.53 1394.6C1693.28 1395.91 1694.68 1396.71 1696.19 1396.71L1712.65 1396.71C1714.16 1396.71 1715.55 1397.52 1716.31 1398.82L1717.52 1400.91C1718.27 1402.21 1718.27 1403.81 1717.52 1405.11L1716.31 1407.2C1715.56 1408.51 1714.16 1409.31 1712.65 1409.31L1708.36 1409.31C1705.1 1409.31 1703.07 1412.83 1704.7 1415.63L1707.88 1421.1C1708.63 1422.41 1708.64 1424.01 1707.88 1425.31L1706.68 1427.39C1705.92 1428.7 1704.52 1429.51 1703.01 1429.51L1700.61 1429.51C1699.1 1429.51 1697.71 1428.71 1696.95 1427.4L1693.77 1421.94C1692.14 1419.13 1688.07 1419.13 1686.44 1421.94L1684.3 1425.63C1683.55 1426.94 1682.15 1427.74 1680.64 1427.74L1678.25 1427.74C1676.73 1427.74 1675.33 1426.94 1674.58 1425.63L1673.37 1423.54C1672.62 1422.24 1672.62 1420.64 1673.37 1419.34L1681.59 1405.14C1682.35 1403.85 1682.35 1402.24 1681.59 1400.94L1674.56 1388.78C1672.93 1385.97 1668.85 1385.97 1667.23 1388.78L1660.19 1400.95C1659.44 1402.24 1659.43 1403.85 1660.18 1405.14L1668.42 1419.45C1669.17 1420.75 1669.17 1422.34 1668.42 1423.64L1667.21 1425.74C1666.45 1427.04 1665.06 1427.85 1663.54 1427.85L1661.15 1427.85C1659.64 1427.85 1658.24 1427.04 1657.48 1425.74L1655.34 1422.04C1653.72 1419.23 1649.64 1419.23 1648.02 1422.04L1644.84 1427.51C1644.08 1428.81 1642.69 1429.61 1641.18 1429.61L1638.78 1429.61C1637.26 1429.61 1635.87 1428.81 1635.11 1427.5L1633.91 1425.41C1633.15 1424.11 1633.15 1422.51 1633.91 1421.21L1637.09 1415.73C1638.72 1412.93 1636.68 1409.42 1633.43 1409.42L1629.14 1409.42C1627.63 1409.42 1626.23 1408.61 1625.48 1407.31L1624.26 1405.22C1623.51 1403.92 1623.51 1402.32 1624.26 1401.02L1625.48 1398.93C1626.23 1397.62 1627.63 1396.81 1629.14 1396.81L1645.6 1396.81C1647.11 1396.81 1648.51 1396.01 1649.26 1394.7L1656.31 1382.52C1657.93 1379.72 1655.9 1376.21 1652.64 1376.21L1638.54 1376.21C1637.02 1376.21 1635.62 1377.02 1634.87 1378.32L1626.65 1392.5C1625.9 1393.81 1624.5 1394.61 1622.99 1394.61L1620.59 1394.61C1619.08 1394.61 1617.68 1393.81 1616.92 1392.5L1615.72 1390.41C1614.97 1389.11 1614.97 1387.51 1615.72 1386.21L1617.87 1382.49C1619.49 1379.68 1617.46 1376.18 1614.2 1376.18L1607.87 1376.18C1606.35 1376.18 1604.95 1375.37 1604.2 1374.07L1603 1371.99C1602.24 1370.68 1602.25 1369.07 1603.01 1367.77L1604.19 1365.76C1604.95 1364.47 1606.34 1363.68 1607.85 1363.68L1614.21 1363.68C1617.46 1363.68 1619.5 1360.18 1617.88 1357.37L1615.73 1353.65C1614.97 1352.35 1614.97 1350.75 1615.73 1349.45L1616.94 1347.36C1617.69 1346.05 1619.09 1345.24 1620.6 1345.24L1623 1345.24C1624.51 1345.24 1625.91 1346.05 1626.67 1347.35L1634.88 1361.54C1635.64 1362.84 1637.03 1363.64 1638.55 1363.64L1652.65 1363.64C1655.91 1363.64 1657.95 1360.14 1656.32 1357.33L1649.27 1345.15C1648.52 1343.85 1647.12 1343.04 1645.61 1343.04L1629.15 1343.04C1627.64 1343.04 1626.24 1342.24 1625.49 1340.93L1624.27 1338.84C1623.52 1337.54 1623.52 1335.94 1624.27 1334.64L1625.49 1332.55C1626.24 1331.24 1627.64 1330.44 1629.15 1330.44L1633.44 1330.44C1636.69 1330.44 1638.73 1326.93 1637.1 1324.12L1633.92 1318.65C1633.16 1317.35 1633.16 1315.74 1633.91 1314.44L1635.12 1312.36C1635.87 1311.05 1637.27 1310.24 1638.79 1310.24L1641.19 1310.24C1642.7 1310.24 1644.09 1311.05 1644.85 1312.35L1648.01 1317.79C1649.64 1320.6 1653.73 1320.59 1655.34 1317.77L1657.49 1314.03C1658.24 1312.71 1659.65 1311.9 1661.17 1311.9L1663.55 1311.9C1665.06 1311.9 1666.46 1312.71 1667.21 1314.02L1668.42 1316.1C1669.18 1317.41 1669.17 1319 1668.42 1320.31L1660.2 1334.5C1659.45 1335.81 1659.45 1337.41 1660.2 1338.7L1667.23 1350.87C1668.86 1353.68 1672.94 1353.68 1674.57 1350.87L1681.6 1338.7C1682.36 1337.41 1682.36 1335.81 1681.6 1334.5L1673.38 1320.31C1672.63 1319.01 1672.63 1317.41 1673.38 1316.1L1674.59 1314.02C1675.34 1312.71 1676.74 1311.9 1678.26 1311.9L1680.65 1311.9C1682.16 1311.9 1683.56 1312.71 1684.31 1314.01L1686.45 1317.71C1688.08 1320.52 1692.15 1320.52 1693.78 1317.72L1696.95 1312.24C1697.71 1310.94 1699.11 1310.14 1700.62 1310.14L1703.02 1310.14C1704.53 1310.14 1705.93 1310.94 1706.69 1312.25L1707.89 1314.34C1708.65 1315.64 1708.64 1317.24 1707.89 1318.54L1704.71 1324.02C1703.07 1326.82 1705.11 1330.33 1708.37 1330.33L1712.66 1330.33C1714.17 1330.33 1715.56 1331.14 1716.32 1332.44L1717.53 1334.54C1718.28 1335.83 1718.28 1337.43 1717.53 1338.73L1716.32 1340.82C1715.56 1342.13 1714.17 1342.94 1712.66 1342.94L1696.2 1342.94C1694.68 1342.94 1693.29 1343.74 1692.53 1345.05L1685.48 1357.23C1683.86 1360.03 1685.9 1363.54 1689.15 1363.54L1703.26 1363.54C1704.77 1363.54 1706.17 1362.74 1706.92 1361.43L1715.14 1347.25C1715.89 1345.94 1717.29 1345.14 1718.81 1345.14L1721.2 1345.14C1722.71 1345.14 1724.11 1345.94 1724.87 1347.25L1726.08 1349.34C1726.83 1350.64 1726.83 1352.24 1726.08 1353.54L1723.93 1357.26C1722.3 1360.07 1724.34 1363.57 1727.6 1363.57L1733.94 1363.57C1735.45 1363.57 1736.85 1364.38 1737.6 1365.68L1738.82 1367.77C1739.57 1369.08 1739.57 1370.67 1738.82 1371.97L1737.6 1374.06C1736.85 1375.37 1735.45 1376.17 1733.94 1376.17Z" stroke="#2DA5E7" stroke-width="3.24643" stroke-linecap="butt" stroke-linejoin="miter" stroke-miterlimit="8" stroke-opacity="1" fill="#2DA5E7" fill-rule="evenodd" fill-opacity="1" transform="matrix(1.00018 0 0 1 3544.22 957.572)"/><text fill="#000000" fill-opacity="1" font-family="Calibri,Calibri_MSFontService,sans-serif" font-style="normal" font-variant="normal" font-weight="700" font-stretch="normal" font-size="147" text-anchor="start" direction="ltr" writing-mode="lr-tb" unicode-bidi="normal" text-decoration="none" transform="matrix(0.472293 0 0 0.472208 5514.89 1919)">Cross</text><text fill="#000000" fill-opacity="1" font-family="Calibri,Calibri_MSFontService,sans-serif" font-style="normal" font-variant="normal" font-weight="700" font-stretch="normal" font-size="147" text-anchor="start" direction="ltr" writing-mode="lr-tb" unicode-bidi="normal" text-decoration="none" transform="matrix(0.472293 0 0 0.472208 5668.01 1919)">-</text><text fill="#000000" fill-opacity="1" font-family="Calibri,Calibri_MSFontService,sans-serif" font-style="normal" font-variant="normal" font-weight="700" font-stretch="normal" font-size="147" text-anchor="start" direction="ltr" writing-mode="lr-tb" unicode-bidi="normal" text-decoration="none" transform="matrix(0.472293 0 0 0.472208 5689.12 1919)">modal </text><text fill="#000000" fill-opacity="1" font-family="Calibri,Calibri_MSFontService,sans-serif" font-style="normal" font-variant="normal" font-weight="700" font-stretch="normal" font-size="147" text-anchor="start" direction="ltr" writing-mode="lr-tb" unicode-bidi="normal" text-decoration="none" transform="matrix(0.472293 0 0 0.472208 5598.89 2003)">Fusion</text><text fill="#000000" fill-opacity="1" font-family="Calibri,Calibri_MSFontService,sans-serif" font-style="normal" font-variant="normal" font-weight="700" font-stretch="normal" font-size="147" text-anchor="start" direction="ltr" writing-mode="lr-tb" unicode-bidi="normal" text-decoration="none" transform="matrix(0.472293 0 0 0.472208 5020.4 1580)">Visual </text><text fill="#000000" fill-opacity="1" font-family="Calibri,Calibri_MSFontService,sans-serif" font-style="normal" font-variant="normal" font-weight="700" font-stretch="normal" font-size="147" text-anchor="start" direction="ltr" writing-mode="lr-tb" unicode-bidi="normal" text-decoration="none" transform="matrix(0.472293 0 0 0.472208 4986.74 1663)">Decoder</text><text fill="#000000" fill-opacity="1" font-family="Calibri,Calibri_MSFontService,sans-serif" font-style="normal" font-variant="normal" font-weight="700" font-stretch="normal" font-size="147" text-anchor="start" direction="ltr" writing-mode="lr-tb" unicode-bidi="normal" text-decoration="none" transform="matrix(0.472293 0 0 0.472208 5020.4 2259)">Visual </text><text fill="#000000" fill-opacity="1" font-family="Calibri,Calibri_MSFontService,sans-serif" font-style="normal" font-variant="normal" font-weight="700" font-stretch="normal" font-size="147" text-anchor="start" direction="ltr" writing-mode="lr-tb" unicode-bidi="normal" text-decoration="none" transform="matrix(0.472293 0 0 0.472208 4990.53 2343)">Encoder</text><text fill="#000000" fill-opacity="1" font-family="Calibri,Calibri_MSFontService,sans-serif" font-style="normal" font-variant="normal" font-weight="700" font-stretch="normal" font-size="147" text-anchor="start" direction="ltr" writing-mode="lr-tb" unicode-bidi="normal" text-decoration="none" transform="matrix(0.472293 0 0 0.472208 6145.04 1580)">Linguistic </text><text fill="#000000" fill-opacity="1" font-family="Calibri,Calibri_MSFontService,sans-serif" font-style="normal" font-variant="normal" font-weight="700" font-stretch="normal" font-size="147" text-anchor="start" direction="ltr" writing-mode="lr-tb" unicode-bidi="normal" text-decoration="none" transform="matrix(0.472293 0 0 0.472208 6158.07 1663)">Decoder</text><text fill="#000000" fill-opacity="1" font-family="Calibri,Calibri_MSFontService,sans-serif" font-style="normal" font-variant="normal" font-weight="700" font-stretch="normal" font-size="147" text-anchor="start" direction="ltr" writing-mode="lr-tb" unicode-bidi="normal" text-decoration="none" transform="matrix(0.472293 0 0 0.472208 6145.04 2259)">Linguistic </text><text fill="#000000" fill-opacity="1" font-family="Calibri,Calibri_MSFontService,sans-serif" font-style="normal" font-variant="normal" font-weight="700" font-stretch="normal" font-size="147" text-anchor="start" direction="ltr" writing-mode="lr-tb" unicode-bidi="normal" text-decoration="none" transform="matrix(0.472293 0 0 0.472208 6161.85 2343)">En</text><text fill="#000000" fill-opacity="1" font-family="Calibri,Calibri_MSFontService,sans-serif" font-style="normal" font-variant="normal" font-weight="700" font-stretch="normal" font-size="147" text-anchor="start" direction="ltr" writing-mode="lr-tb" unicode-bidi="normal" text-decoration="none" transform="matrix(0.472293 0 0 0.472208 6232.75 2343)">coder</text><path d="M1835.1 684.782C1908.82 714.583 1976.01 758.508 2032.87 814.082" stroke="#FDE0E1" stroke-width="75.7502" stroke-linecap="round" stroke-linejoin="round" stroke-miterlimit="10" stroke-opacity="1" fill="none" fill-rule="evenodd" transform="matrix(1.00018 0 0 1 3544.22 957.572)"/><g clip-path="url(#clip0)"><g clip-path="url(#clip1)"><g clip-path="url(#clip2)"><path d="M70.4613 15.2417 2.99836 149.918C-6.24657 168.408 7.24603 190.146 27.7348 190.146L162.911 190.146C183.4 190.146 196.892 168.408 187.647 149.918L119.934 15.2417C109.94-4.99725 80.7057-4.99725 70.4613 15.2417Z" fill="#FDE0E1" fill-rule="evenodd" fill-opacity="1" transform="matrix(-0.423267 0.906005 0.906168 0.423191 5323.55 1515.98)"/></g></g></g><path d="M475.013 47.3365C622.762 140.892 669.926 341.839 580.358 496.163 555.312 539.313 521.044 575.82 480.231 602.821" stroke="#2DA5E7" stroke-width="75.7502" stroke-linecap="round" stroke-linejoin="round" stroke-miterlimit="10" stroke-opacity="1" fill="none" fill-rule="evenodd" transform="matrix(-1.00018 1.22465e-16 1.22487e-16 1 5354.04 1600.25)"/><g clip-path="url(#clip3)"><g clip-path="url(#clip4)"><g clip-path="url(#clip5)"><path d="M70.4638 15.2422 2.99846 149.923C-6.24678 168.414 7.24627 190.152 27.7358 190.152L162.916 190.152C183.406 190.152 196.899 168.414 187.654 149.923L119.938 15.2422C109.943-4.99743 80.7085-4.99743 70.4638 15.2422Z" fill="#2DA5E7" fill-rule="evenodd" fill-opacity="1" transform="matrix(0.605073 -0.79617 -0.796314 -0.604964 4884.09 2331.13)"/></g></g></g><path d="M838.74 44.4666C913.415 74.6532 981.376 119.328 1038.7 175.913" stroke="#FDE0E1" stroke-width="75.7502" stroke-linecap="round" stroke-linejoin="round" stroke-miterlimit="10" stroke-opacity="1" fill="none" fill-rule="evenodd" transform="matrix(-1.00018 0 0 1 6847.43 1597.89)"/><g clip-path="url(#clip6)"><g clip-path="url(#clip7)"><g clip-path="url(#clip8)"><path d="M2533.63 628.698 2383.06 624.566C2362.4 624.018 2348.41 645.442 2357.08 664.005L2414.29 786.472C2422.96 805.034 2448.36 808.061 2461.2 791.86L2554.56 673.52C2568.67 655.897 2556.3 629.411 2533.63 628.698Z" fill="#FDE0E1" fill-rule="evenodd" fill-opacity="1" transform="matrix(1.00018 0 0 1 3544.22 957.572)"/></g></g></g><path d="M818.502 36.7017C897.752 65.507 970.17 110.428 1031.19 168.628" stroke="#FDE0E1" stroke-width="75.7502" stroke-linecap="round" stroke-linejoin="round" stroke-miterlimit="10" stroke-opacity="1" fill="none" fill-rule="evenodd" transform="matrix(1.00018 0 0 -1 4528.48 2305.73)"/><g clip-path="url(#clip9)"><g clip-path="url(#clip10)"><g clip-path="url(#clip11)"><path d="M2051.14 1104.3 1908.22 1151.83C1888.6 1158.36 1882.77 1183.28 1897.26 1197.76L1992.84 1293.34C2007.33 1307.83 2032.24 1302 2038.78 1282.39L2086.12 1139.28C2093.37 1117.9 2072.7 1097.24 2051.14 1104.3Z" fill="#FDE0E1" fill-rule="evenodd" fill-opacity="1" transform="matrix(1.00018 0 0 1 3544.22 957.572)"/></g></g></g><path d="M2486.04 1309.38C2408.97 1280.5 2338.54 1236.33 2278.99 1179.52" stroke="#FDE0E1" stroke-width="75.7502" stroke-linecap="round" stroke-linejoin="round" stroke-miterlimit="10" stroke-opacity="1" fill="none" fill-rule="evenodd" transform="matrix(1.00018 0 0 1 3544.22 957.572)"/><g clip-path="url(#clip12)"><g clip-path="url(#clip13)"><g clip-path="url(#clip14)"><path d="M70.4655 15.2425 2.99853 149.927C-6.24693 168.418 7.24645 190.157 27.7365 190.157L162.92 190.157C183.41 190.157 196.904 168.418 187.658 149.927L119.941 15.2425C109.946-4.99755 80.7105-4.99755 70.4655 15.2425Z" fill="#FDE0E1" fill-rule="evenodd" fill-opacity="1" transform="matrix(-0.70717 0.707043 0.70717 0.707043 5827.01 2001.27)"/></g></g></g><path d="M2961.63 672.467C3118.65 747.755 3187.52 941.748 3115.44 1105.76 3090.21 1163.17 3049.6 1211.7 2998.52 1245.5" stroke="#2DA5E7" stroke-width="75.7502" stroke-linecap="round" stroke-linejoin="round" stroke-miterlimit="10" stroke-opacity="1" fill="none" fill-rule="evenodd" transform="matrix(1.00018 0 0 1 3544.22 957.572)"/><g clip-path="url(#clip15)"><g clip-path="url(#clip16)"><g clip-path="url(#clip17)"><path d="M2957.56 1308.24 3105.6 1280.47C3125.92 1276.65 3135.06 1252.75 3122.66 1236.44L3040.89 1128.81C3028.49 1112.5 3003.02 1114.91 2993.89 1133.45L2927.63 1268.85C2917.56 1289.05 2935.24 1312.32 2957.56 1308.24Z" fill="#2DA5E7" fill-rule="evenodd" fill-opacity="1" transform="matrix(1.00018 0 0 1 3544.22 957.572)"/></g></g></g></g></g></g><g><g><g><text fill="#000000" fill-opacity="1" font-family="Calibri,Calibri_MSFontService,sans-serif" font-style="normal" font-variant="normal" font-weight="700" font-stretch="normal" font-size="147" text-anchor="start" direction="ltr" writing-mode="lr-tb" unicode-bidi="normal" text-decoration="none" transform="matrix(0.472525 0 0 0.472727 3192.3 1920)">Cross</text><text fill="#000000" fill-opacity="1" font-family="Calibri,Calibri_MSFontService,sans-serif" font-style="normal" font-variant="normal" font-weight="700" font-stretch="normal" font-size="147" text-anchor="start" direction="ltr" writing-mode="lr-tb" unicode-bidi="normal" text-decoration="none" transform="matrix(0.472525 0 0 0.472727 3345.49 1920)">-</text><text fill="#000000" fill-opacity="1" font-family="Calibri,Calibri_MSFontService,sans-serif" font-style="normal" font-variant="normal" font-weight="700" font-stretch="normal" font-size="147" text-anchor="start" direction="ltr" writing-mode="lr-tb" unicode-bidi="normal" text-decoration="none" transform="matrix(0.472525 0 0 0.472727 3366.61 1920)">modal </text><text fill="#000000" fill-opacity="1" font-family="Calibri,Calibri_MSFontService,sans-serif" font-style="normal" font-variant="normal" font-weight="700" font-stretch="normal" font-size="147" text-anchor="start" direction="ltr" writing-mode="lr-tb" unicode-bidi="normal" text-decoration="none" transform="matrix(0.472525 0 0 0.472727 3276.34 2003)">Fusion</text><text fill="#000000" fill-opacity="1" font-family="Calibri,Calibri_MSFontService,sans-serif" font-style="normal" font-variant="normal" font-weight="700" font-stretch="normal" font-size="147" text-anchor="start" direction="ltr" writing-mode="lr-tb" unicode-bidi="normal" text-decoration="none" transform="matrix(0.472525 0 0 0.472727 2697.56 1580)">Visual </text><text fill="#000000" fill-opacity="1" font-family="Calibri,Calibri_MSFontService,sans-serif" font-style="normal" font-variant="normal" font-weight="700" font-stretch="normal" font-size="147" text-anchor="start" direction="ltr" writing-mode="lr-tb" unicode-bidi="normal" text-decoration="none" transform="matrix(0.472525 0 0 0.472727 2663.89 1663)">Decoder</text><text fill="#000000" fill-opacity="1" font-family="Calibri,Calibri_MSFontService,sans-serif" font-style="normal" font-variant="normal" font-weight="700" font-stretch="normal" font-size="147" text-anchor="start" direction="ltr" writing-mode="lr-tb" unicode-bidi="normal" text-decoration="none" transform="matrix(0.472525 0 0 0.472727 2697.56 2260)">Visual </text><text fill="#000000" fill-opacity="1" font-family="Calibri,Calibri_MSFontService,sans-serif" font-style="normal" font-variant="normal" font-weight="700" font-stretch="normal" font-size="147" text-anchor="start" direction="ltr" writing-mode="lr-tb" unicode-bidi="normal" text-decoration="none" transform="matrix(0.472525 0 0 0.472727 2667.68 2343)">Encoder</text><text fill="#000000" fill-opacity="1" font-family="Calibri,Calibri_MSFontService,sans-serif" font-style="normal" font-variant="normal" font-weight="700" font-stretch="normal" font-size="147" text-anchor="start" direction="ltr" writing-mode="lr-tb" unicode-bidi="normal" text-decoration="none" transform="matrix(0.472525 0 0 0.472727 3822.75 1580)">Linguistic </text><text fill="#000000" fill-opacity="1" font-family="Calibri,Calibri_MSFontService,sans-serif" font-style="normal" font-variant="normal" font-weight="700" font-stretch="normal" font-size="147" text-anchor="start" direction="ltr" writing-mode="lr-tb" unicode-bidi="normal" text-decoration="none" transform="matrix(0.472525 0 0 0.472727 3835.79 1663)">Decoder</text><text fill="#000000" fill-opacity="1" font-family="Calibri,Calibri_MSFontService,sans-serif" font-style="normal" font-variant="normal" font-weight="700" font-stretch="normal" font-size="147" text-anchor="start" direction="ltr" writing-mode="lr-tb" unicode-bidi="normal" text-decoration="none" transform="matrix(0.472525 0 0 0.472727 3822.75 2260)">Linguistic </text><text fill="#000000" fill-opacity="1" font-family="Calibri,Calibri_MSFontService,sans-serif" font-style="normal" font-variant="normal" font-weight="700" font-stretch="normal" font-size="147" text-anchor="start" direction="ltr" writing-mode="lr-tb" unicode-bidi="normal" text-decoration="none" transform="matrix(0.472525 0 0 0.472727 3839.58 2343)">En</text><text fill="#000000" fill-opacity="1" font-family="Calibri,Calibri_MSFontService,sans-serif" font-style="normal" font-variant="normal" font-weight="700" font-stretch="normal" font-size="147" text-anchor="start" direction="ltr" writing-mode="lr-tb" unicode-bidi="normal" text-decoration="none" transform="matrix(0.472525 0 0 0.472727 3910.51 2343)">coder</text><path d="M1836.33 685.242C1910.1 715.063 1977.33 759.017 2034.24 814.628" stroke="#F55D61" stroke-width="75.801" stroke-linecap="round" stroke-linejoin="round" stroke-miterlimit="10" stroke-opacity="1" fill="none" fill-rule="evenodd" transform="matrix(1 0 0 1.00043 1220.65 956.982)"/><g clip-path="url(#clip18)"><g clip-path="url(#clip19)"><g clip-path="url(#clip20)"><path d="M70.5118 15.2526 3.00051 150.025C-6.25104 168.528 7.25121 190.282 27.7547 190.282L163.027 190.282C183.531 190.282 197.033 168.528 187.782 150.025L120.02 15.2526C110.018-5.00083 80.7635-5.00083 70.5118 15.2526Z" fill="#F55D61" fill-rule="evenodd" fill-opacity="1" transform="matrix(-0.423172 0.906353 0.905965 0.423353 3000.86 1516)"/></g></g></g><path d="M475.332 47.3683C623.18 140.986 670.376 342.068 580.747 496.496 555.685 539.675 521.393 576.206 480.553 603.225" stroke="#C1E4F8" stroke-width="75.801" stroke-linecap="round" stroke-linejoin="round" stroke-miterlimit="10" stroke-opacity="1" fill="none" fill-rule="evenodd" transform="matrix(-1 1.22517e-16 1.22465e-16 1.00043 3031.37 1600.36)"/><g clip-path="url(#clip21)"><g clip-path="url(#clip22)"><g clip-path="url(#clip23)"><path d="M70.5175 15.2538 3.00074 150.037C-6.25154 168.542 7.2518 190.297 27.7569 190.297L163.041 190.297C183.546 190.297 197.049 168.542 187.797 150.037L120.03 15.2538C110.027-5.00123 80.77-5.00123 70.5175 15.2538Z" fill="#C1E4F8" fill-rule="evenodd" fill-opacity="1" transform="matrix(0.604909 -0.796439 -0.796098 -0.605168 2561.18 2332.05)"/></g></g></g><path d="M839.304 44.4964C914.029 74.7034 982.034 119.408 1039.39 176.031" stroke="#F55D61" stroke-width="75.801" stroke-linecap="round" stroke-linejoin="round" stroke-miterlimit="10" stroke-opacity="1" fill="none" fill-rule="evenodd" transform="matrix(-1 0 0 1.00043 4525.49 1598)"/><g clip-path="url(#clip24)"><g clip-path="url(#clip25)"><g clip-path="url(#clip26)"><path d="M2535.33 629.12 2384.66 624.985C2363.99 624.437 2349.99 645.875 2358.67 664.45L2415.91 787C2424.59 805.575 2450.01 808.604 2462.86 792.391L2556.28 673.972C2570.4 656.337 2558.02 629.833 2535.33 629.12Z" fill="#F55D61" fill-rule="evenodd" fill-opacity="1" transform="matrix(1 0 0 1.00043 1220.65 956.982)"/></g></g></g><path d="M819.051 36.7263C898.355 65.551 970.821 110.502 1031.88 168.741" stroke="#F55D61" stroke-width="75.801" stroke-linecap="round" stroke-linejoin="round" stroke-miterlimit="10" stroke-opacity="1" fill="none" fill-rule="evenodd" transform="matrix(1 0 0 -1.00043 2205.4 2306.62)"/><g clip-path="url(#clip27)"><g clip-path="url(#clip28)"><g clip-path="url(#clip29)"><path d="M2052.52 1105.04 1909.5 1152.6C1889.87 1159.14 1884.04 1184.07 1898.53 1198.57L1994.18 1294.21C2008.68 1308.71 2033.61 1302.87 2040.15 1283.25L2087.53 1140.05C2094.77 1118.66 2074.09 1097.97 2052.52 1105.04Z" fill="#F55D61" fill-rule="evenodd" fill-opacity="1" transform="matrix(1 0 0 1.00043 1220.65 956.982)"/></g></g></g><path d="M2487.71 1310.25C2410.59 1281.36 2340.11 1237.16 2280.52 1180.32" stroke="#F55D61" stroke-width="75.801" stroke-linecap="round" stroke-linejoin="round" stroke-miterlimit="10" stroke-opacity="1" fill="none" fill-rule="evenodd" transform="matrix(1 0 0 1.00043 1220.65 956.982)"/><g clip-path="url(#clip30)"><g clip-path="url(#clip31)"><g clip-path="url(#clip32)"><path d="M70.5215 15.2547 3.00092 150.046C-6.2519 168.552 7.25221 190.308 27.7585 190.308L163.05 190.308C183.556 190.308 197.061 168.552 187.807 150.046L120.037 15.2547C110.034-5.00152 80.7747-5.00152 70.5215 15.2547Z" fill="#F55D61" fill-rule="evenodd" fill-opacity="1" transform="matrix(-0.706956 0.707258 0.706956 0.707258 3504.57 2001.83)"/></g></g></g><path d="M2963.62 672.918C3120.75 748.257 3189.66 942.38 3117.53 1106.5 3092.29 1163.95 3051.65 1212.51 3000.53 1246.33" stroke="#C1E4F8" stroke-width="75.801" stroke-linecap="round" stroke-linejoin="round" stroke-miterlimit="10" stroke-opacity="1" fill="none" fill-rule="evenodd" transform="matrix(1 0 0 1.00043 1220.65 956.982)"/><g clip-path="url(#clip33)"><g clip-path="url(#clip34)"><g clip-path="url(#clip35)"><path d="M2959.54 1309.12 3107.68 1281.33C3128.02 1277.5 3137.16 1253.59 3124.76 1237.27L3042.93 1129.57C3030.52 1113.25 3005.04 1115.66 2995.9 1134.22L2929.59 1269.7C2919.52 1289.91 2937.22 1313.2 2959.54 1309.12Z" fill="#C1E4F8" fill-rule="evenodd" fill-opacity="1" transform="matrix(1 0 0 1.00043 1220.65 956.982)"/></g></g></g></g></g></g><text fill="#000000" fill-opacity="1" font-family="Calibri,Calibri_MSFontService,sans-serif" font-style="normal" font-variant="normal" font-weight="700" font-stretch="normal" font-size="83" text-anchor="start" direction="ltr" writing-mode="lr-tb" unicode-bidi="normal" text-decoration="none" transform="matrix(1 0 0 1 3321.82 1355)">Forward Stage</text><path d="M2924 1328 3053.92 1328" stroke="#F55D61" stroke-width="45.8333" stroke-linecap="round" stroke-linejoin="miter" stroke-miterlimit="8" stroke-opacity="1" fill="none" fill-rule="evenodd"/><g><g><g><path d="M45.0904 9.75361 1.91874 95.9371C-3.99738 107.769 4.63696 121.68 17.7484 121.68L104.252 121.68C117.363 121.68 125.997 107.769 120.081 95.9371L76.7497 9.75361C70.3539-3.1979 51.6461-3.1979 45.0904 9.75361Z" fill="#F55D61" fill-rule="evenodd" fill-opacity="1" transform="matrix(-1.83697e-16 -1 -1 1.83697e-16 3175.84 1389)"/></g></g></g><text fill="#000000" fill-opacity="1" font-family="Calibri,Calibri_MSFontService,sans-serif" font-style="normal" font-variant="normal" font-weight="700" font-stretch="normal" font-size="83" text-anchor="start" direction="ltr" writing-mode="lr-tb" unicode-bidi="normal" text-decoration="none" transform="matrix(1 0 0 1 5616.9 1355)">Traceback Stage</text><path d="M5219 1328 5348.92 1328" stroke="#2DA5E7" stroke-width="45.8333" stroke-linecap="round" stroke-linejoin="miter" stroke-miterlimit="8" stroke-opacity="1" fill="none" fill-rule="evenodd"/><g><g><g><path d="M45.0904 9.75361 1.91874 95.9371C-3.99738 107.769 4.63696 121.68 17.7484 121.68L104.252 121.68C117.363 121.68 125.997 107.769 120.081 95.9371L76.7497 9.75361C70.3539-3.1979 51.6461-3.1979 45.0904 9.75361Z" fill="#2DA5E7" fill-rule="evenodd" fill-opacity="1" transform="matrix(-1.83697e-16 -1 -1 1.83697e-16 5470.84 1389)"/></g></g></g></g></g></svg>